<svg width="28" height="28" viewBox="0 0 28 28" fill="none" xmlns="http://www.w3.org/2000/svg">
<circle cx="14" cy="14" r="14" fill="black"/>
<g clip-path="url(#clip0_18_597)">
<path d="M18.1665 21H9C9.18073 17.9785 11.1086 16.7829 13.3747 15.2953C14.9457 14.2618 16.8365 13.0894 16.8365 10.9623C16.8365 9.2337 15.6038 8.09831 13.7547 8.09831C11.3496 8.09831 10.571 9.85005 10.571 11.9169H9.3383V11.7362C9.3383 8.78881 11.0298 7 13.8103 7C16.4148 7 18.1063 8.55247 18.1063 10.9391C18.1063 13.7011 15.6408 15.1933 13.5925 16.5048C12.2625 17.3621 10.6915 18.2936 10.4088 19.9063C10.5478 19.9063 10.6683 19.8878 10.7471 19.8878H18.1665V21Z" fill="white"/>
</g>
<defs>
<clipPath id="clip0_18_597">
<rect width="9.1665" height="14" fill="white" transform="translate(9 7)"/>
</clipPath>
</defs>
</svg>
