<svg width="28" height="28" viewBox="0 0 28 28" fill="none" xmlns="http://www.w3.org/2000/svg">
<circle cx="14" cy="14" r="14" fill="black"/>
<g clip-path="url(#clip0_18_598)">
<path d="M13.7514 7C16.2065 7 17.8402 8.40227 17.8402 10.4853C17.8402 11.9647 16.9643 13.0947 15.5439 13.4441C17.3365 13.8162 18.3303 15.0006 18.3303 16.775C18.3303 19.2891 16.4425 21 13.6379 21C10.8107 21 9 19.3073 9 16.6571V16.3485H10.189V16.4075C10.189 18.6084 11.4914 19.9335 13.6742 19.9335C15.6619 19.9335 17.0823 18.6856 17.0823 16.9157C17.0823 14.7147 15.3669 14.0522 13.4972 14.0522C13.2431 14.0522 13.1251 14.0522 12.8347 14.0703V13.0357H13.3429C14.1008 13.0357 14.4729 12.9948 14.9767 12.8224C16.0068 12.4321 16.5922 11.6152 16.5922 10.5442C16.5922 9.02399 15.4622 8.03015 13.6924 8.03015C11.7047 8.03015 10.5566 9.25543 10.4794 11.4382H9.33128C9.37212 8.63371 11.0058 7 13.7514 7Z" fill="white"/>
</g>
<defs>
<clipPath id="clip0_18_598">
<rect width="9.32577" height="14" fill="white" transform="translate(9 7)"/>
</clipPath>
</defs>
</svg>
