<svg width="28" height="28" viewBox="0 0 28 28" fill="none" xmlns="http://www.w3.org/2000/svg">
<circle cx="14" cy="14" r="14" fill="black"/>
<path d="M21.875 10.0517H18.3155C18.5709 9.87728 18.7902 9.70403 18.9432 9.54878C19.85 8.6364 19.85 7.1514 18.9432 6.23903C18.0624 5.35253 16.5256 5.3514 15.6436 6.23903C15.1565 6.7284 13.8616 8.72078 14.0405 10.0517H13.9595C14.1372 8.72078 12.8435 6.7284 12.3564 6.23903C11.4744 5.3514 9.93762 5.35253 9.05675 6.23903C8.15 7.1514 8.15 8.6364 9.05562 9.54878C9.20975 9.70403 9.42912 9.87728 9.6845 10.0517H6.125C5.50512 10.0517 5 10.5568 5 11.1767V13.9892C5 14.2997 5.252 14.5517 5.5625 14.5517H6.125V21.3017C6.125 21.9215 6.63013 22.4267 7.25 22.4267H20.75C21.3699 22.4267 21.875 21.9215 21.875 21.3017V14.5517H22.4375C22.748 14.5517 23 14.2997 23 13.9892V11.1767C23 10.5568 22.4949 10.0517 21.875 10.0517ZM9.85437 7.03215C10.0827 6.80265 10.3854 6.67665 10.7071 6.67665C11.0278 6.67665 11.3304 6.80265 11.5588 7.03215C12.317 7.7949 13.0708 9.7434 12.8086 10.0145C12.8086 10.0145 12.7614 10.0517 12.6005 10.0517C11.8231 10.0517 10.3393 9.2439 9.85437 8.75565C9.383 8.2809 9.383 7.5069 9.85437 7.03215ZM13.4375 21.3017H7.25V14.5517H13.4375V21.3017ZM13.4375 13.4267H6.125V11.1767H12.6005H13.4375V13.4267ZM16.4412 7.03215C16.898 6.57428 17.69 6.5754 18.1456 7.03215C18.617 7.5069 18.617 8.2809 18.1456 8.75565C17.6608 9.2439 16.1769 10.0517 15.3995 10.0517C15.2386 10.0517 15.1914 10.0157 15.1902 10.0145C14.9292 9.7434 15.683 7.7949 16.4412 7.03215ZM20.75 21.3017H14.5625V14.5517H20.75V21.3017ZM21.875 13.4267H14.5625V11.1767H15.3995H21.875V13.4267Z" fill="white"/>
</svg>
