<svg width="220" height="220" viewBox="0 0 220 220" fill="none" xmlns="http://www.w3.org/2000/svg">
<g filter="url(#filter0_d_14_23)">
<rect x="20" y="10" width="180" height="180" rx="90" fill="white"/>
</g>
<path d="M91.2938 79H74.3018V54.988H91.2938V59.488H79.4138V64.564H91.0418V69.064H79.4138V74.5H91.2938V79ZM110.194 79H105.622V77.2C104.374 78.688 102.538 79.432 100.114 79.432C98.5541 79.432 97.1501 78.928 95.9021 77.92C94.6781 76.888 94.0661 75.472 94.0661 73.672C94.0661 71.8 94.6661 70.396 95.8661 69.46C97.0901 68.524 98.5061 68.056 100.114 68.056C102.586 68.056 104.422 68.764 105.622 70.18V67.84C105.622 66.952 105.274 66.244 104.578 65.716C103.882 65.188 102.958 64.924 101.806 64.924C99.9101 64.924 98.2181 65.608 96.7301 66.976L95.0021 63.916C97.0661 62.092 99.5981 61.18 102.598 61.18C104.83 61.18 106.654 61.696 108.07 62.728C109.486 63.76 110.194 65.44 110.194 67.768V79ZM101.95 76.336C103.654 76.336 104.878 75.832 105.622 74.824V72.664C104.878 71.656 103.654 71.152 101.95 71.152C101.014 71.152 100.234 71.392 99.6101 71.872C98.9861 72.328 98.6741 72.964 98.6741 73.78C98.6741 74.572 98.9861 75.196 99.6101 75.652C100.234 76.108 101.014 76.336 101.95 76.336ZM120.993 79.432C119.481 79.432 118.029 79.192 116.637 78.712C115.269 78.232 114.129 77.572 113.217 76.732L115.197 73.528C115.869 74.152 116.781 74.704 117.933 75.184C119.085 75.664 120.177 75.904 121.209 75.904C122.169 75.904 122.889 75.736 123.369 75.4C123.873 75.064 124.125 74.608 124.125 74.032C124.125 73.6 123.861 73.252 123.333 72.988C122.829 72.7 122.193 72.496 121.425 72.376C120.681 72.256 119.853 72.076 118.941 71.836C118.053 71.596 117.225 71.308 116.457 70.972C115.713 70.636 115.077 70.108 114.549 69.388C114.045 68.644 113.793 67.732 113.793 66.652C113.793 65.116 114.429 63.82 115.701 62.764C116.973 61.708 118.713 61.18 120.921 61.18C123.609 61.18 125.949 61.972 127.941 63.556L126.105 66.688C125.553 66.112 124.809 65.632 123.873 65.248C122.961 64.864 121.989 64.672 120.957 64.672C120.141 64.672 119.481 64.84 118.977 65.176C118.473 65.488 118.221 65.896 118.221 66.4C118.221 66.784 118.473 67.108 118.977 67.372C119.481 67.612 120.117 67.792 120.885 67.912C121.653 68.032 122.481 68.224 123.369 68.488C124.257 68.728 125.085 69.028 125.853 69.388C126.621 69.724 127.257 70.276 127.761 71.044C128.265 71.812 128.517 72.748 128.517 73.852C128.517 75.484 127.845 76.828 126.501 77.884C125.181 78.916 123.345 79.432 120.993 79.432ZM131.273 85.804L131.957 81.7C132.389 81.892 132.869 81.988 133.397 81.988C134.621 81.988 135.425 81.568 135.809 80.728L136.457 79.252L129.401 61.612H134.297L138.833 73.708L143.369 61.612H148.301L140.129 81.844C139.529 83.38 138.689 84.448 137.609 85.048C136.529 85.672 135.173 86.008 133.541 86.056C132.701 86.056 131.945 85.972 131.273 85.804ZM108.928 114H104.356V112.2C103.108 113.688 101.272 114.432 98.8484 114.432C97.2884 114.432 95.8844 113.928 94.6364 112.92C93.4124 111.888 92.8004 110.472 92.8004 108.672C92.8004 106.8 93.4004 105.396 94.6004 104.46C95.8244 103.524 97.2404 103.056 98.8484 103.056C101.32 103.056 103.156 103.764 104.356 105.18V102.84C104.356 101.952 104.008 101.244 103.312 100.716C102.616 100.188 101.692 99.924 100.54 99.924C98.6444 99.924 96.9524 100.608 95.4644 101.976L93.7364 98.916C95.8004 97.092 98.3324 96.18 101.332 96.18C103.564 96.18 105.388 96.696 106.804 97.728C108.22 98.76 108.928 100.44 108.928 102.768V114ZM100.684 111.336C102.388 111.336 103.612 110.832 104.356 109.824V107.664C103.612 106.656 102.388 106.152 100.684 106.152C99.7484 106.152 98.9684 106.392 98.3444 106.872C97.7204 107.328 97.4084 107.964 97.4084 108.78C97.4084 109.572 97.7204 110.196 98.3444 110.652C98.9684 111.108 99.7484 111.336 100.684 111.336ZM119.727 114.432C118.215 114.432 116.763 114.192 115.371 113.712C114.003 113.232 112.863 112.572 111.951 111.732L113.931 108.528C114.603 109.152 115.515 109.704 116.667 110.184C117.819 110.664 118.911 110.904 119.943 110.904C120.903 110.904 121.623 110.736 122.103 110.4C122.607 110.064 122.859 109.608 122.859 109.032C122.859 108.6 122.595 108.252 122.067 107.988C121.563 107.7 120.927 107.496 120.159 107.376C119.415 107.256 118.587 107.076 117.675 106.836C116.787 106.596 115.959 106.308 115.191 105.972C114.447 105.636 113.811 105.108 113.283 104.388C112.779 103.644 112.527 102.732 112.527 101.652C112.527 100.116 113.163 98.82 114.435 97.764C115.707 96.708 117.447 96.18 119.655 96.18C122.343 96.18 124.683 96.972 126.675 98.556L124.839 101.688C124.287 101.112 123.543 100.632 122.607 100.248C121.695 99.864 120.723 99.672 119.691 99.672C118.875 99.672 118.215 99.84 117.711 100.176C117.207 100.488 116.955 100.896 116.955 101.4C116.955 101.784 117.207 102.108 117.711 102.372C118.215 102.612 118.851 102.792 119.619 102.912C120.387 103.032 121.215 103.224 122.103 103.488C122.991 103.728 123.819 104.028 124.587 104.388C125.355 104.724 125.991 105.276 126.495 106.044C126.999 106.812 127.251 107.748 127.251 108.852C127.251 110.484 126.579 111.828 125.235 112.884C123.915 113.916 122.079 114.432 119.727 114.432ZM82.8692 149H77.7572V131.576L73.7612 135.644L70.8452 132.584L78.4052 124.988H82.8692V149ZM94.97 142.232H86.33V138.344H94.97V142.232ZM115.807 149H97.735V145.004C102.871 141.188 106.267 138.476 107.923 136.868C109.603 135.236 110.443 133.712 110.443 132.296C110.443 131.312 110.059 130.544 109.291 129.992C108.523 129.44 107.611 129.164 106.555 129.164C104.035 129.164 101.887 130.088 100.111 131.936L97.195 128.552C98.323 127.256 99.703 126.284 101.335 125.636C102.991 124.964 104.695 124.628 106.447 124.628C109.087 124.628 111.271 125.324 112.999 126.716C114.751 128.108 115.627 129.968 115.627 132.296C115.627 134.264 114.847 136.196 113.287 138.092C111.751 139.964 109.327 142.1 106.015 144.5H115.807V149ZM127.349 142.232H118.709V138.344H127.349V142.232ZM138.61 149.432C136.498 149.432 134.626 149.084 132.994 148.388C131.362 147.668 130.078 146.732 129.142 145.58L131.806 142.16C132.622 143 133.63 143.672 134.83 144.176C136.03 144.656 137.23 144.896 138.43 144.896C139.87 144.896 140.986 144.62 141.778 144.068C142.57 143.492 142.966 142.748 142.966 141.836C142.966 140.876 142.582 140.18 141.814 139.748C141.046 139.292 139.822 139.064 138.142 139.064C136.63 139.064 135.634 139.088 135.154 139.136V134.528C135.442 134.552 136.438 134.564 138.142 134.564C141.094 134.564 142.57 133.712 142.57 132.008C142.57 131.096 142.15 130.4 141.31 129.92C140.494 129.416 139.426 129.164 138.106 129.164C135.778 129.164 133.75 129.992 132.022 131.648L129.466 128.444C131.722 125.9 134.782 124.628 138.646 124.628C141.454 124.628 143.662 125.216 145.27 126.392C146.902 127.568 147.718 129.152 147.718 131.144C147.718 132.584 147.202 133.796 146.17 134.78C145.138 135.74 143.902 136.352 142.462 136.616C143.878 136.76 145.162 137.348 146.314 138.38C147.49 139.388 148.078 140.72 148.078 142.376C148.078 144.464 147.214 146.168 145.486 147.488C143.758 148.784 141.466 149.432 138.61 149.432Z" fill="black"/>
<defs>
<filter id="filter0_d_14_23" x="0" y="0" width="220" height="220" filterUnits="userSpaceOnUse" color-interpolation-filters="sRGB">
<feFlood flood-opacity="0" result="BackgroundImageFix"/>
<feColorMatrix in="SourceAlpha" type="matrix" values="0 0 0 0 0 0 0 0 0 0 0 0 0 0 0 0 0 0 127 0" result="hardAlpha"/>
<feOffset dy="10"/>
<feGaussianBlur stdDeviation="10"/>
<feColorMatrix type="matrix" values="0 0 0 0 0.366667 0 0 0 0 0.366667 0 0 0 0 0.366667 0 0 0 0.1 0"/>
<feBlend mode="normal" in2="BackgroundImageFix" result="effect1_dropShadow_14_23"/>
<feBlend mode="normal" in="SourceGraphic" in2="effect1_dropShadow_14_23" result="shape"/>
</filter>
</defs>
</svg>
