<svg width="220" height="222" viewBox="0 0 220 222" fill="none" xmlns="http://www.w3.org/2000/svg">
<g filter="url(#filter0_d_14_232)">
<rect x="20" y="10" width="180" height="180" rx="90" fill="white"/>
</g>
<path d="M69.704 217H63.188V204.994H69.506C70.598 204.994 71.444 205.294 72.044 205.894C72.656 206.482 72.962 207.202 72.962 208.054C72.962 208.786 72.764 209.398 72.368 209.89C71.972 210.382 71.48 210.688 70.892 210.808C71.54 210.904 72.086 211.234 72.53 211.798C72.974 212.362 73.196 213.016 73.196 213.76C73.196 214.696 72.89 215.47 72.278 216.082C71.666 216.694 70.808 217 69.704 217ZM68.948 209.8C69.38 209.8 69.722 209.68 69.974 209.44C70.226 209.2 70.352 208.888 70.352 208.504C70.352 208.12 70.22 207.808 69.956 207.568C69.704 207.316 69.368 207.19 68.948 207.19H65.744V209.8H68.948ZM69.038 214.786C69.518 214.786 69.896 214.666 70.172 214.426C70.448 214.174 70.586 213.832 70.586 213.4C70.586 213.004 70.448 212.674 70.172 212.41C69.896 212.134 69.518 211.996 69.038 211.996H65.744V214.786H69.038ZM83.2235 217H80.9375V215.902C80.1575 216.778 79.1375 217.216 77.8775 217.216C76.9415 217.216 76.2395 216.976 75.7715 216.496C75.3035 216.016 75.0695 215.344 75.0695 214.48V208.306H77.3555V213.58C77.3555 214.648 77.8895 215.182 78.9575 215.182C79.7615 215.182 80.4215 214.852 80.9375 214.192V208.306H83.2235V217ZM85.1874 220.402L85.5294 218.35C85.7454 218.446 85.9854 218.494 86.2494 218.494C86.8614 218.494 87.2634 218.284 87.4554 217.864L87.7794 217.126L84.2514 208.306H86.6994L88.9674 214.354L91.2354 208.306H93.7014L89.6154 218.422C89.3154 219.19 88.8954 219.724 88.3554 220.024C87.8154 220.336 87.1374 220.504 86.3214 220.528C85.9014 220.528 85.5234 220.486 85.1874 220.402ZM104.295 217.216C103.203 217.216 102.309 216.772 101.613 215.884V220.312H99.3274V208.306H101.613V209.404C102.297 208.528 103.191 208.09 104.295 208.09C105.435 208.09 106.359 208.498 107.067 209.314C107.787 210.118 108.147 211.228 108.147 212.644C108.147 214.06 107.787 215.176 107.067 215.992C106.359 216.808 105.435 217.216 104.295 217.216ZM103.575 215.182C104.235 215.182 104.763 214.948 105.159 214.48C105.567 214.012 105.771 213.4 105.771 212.644C105.771 211.9 105.567 211.294 105.159 210.826C104.763 210.358 104.235 210.124 103.575 210.124C103.203 210.124 102.831 210.22 102.459 210.412C102.087 210.604 101.805 210.838 101.613 211.114V214.192C101.805 214.468 102.087 214.702 102.459 214.894C102.843 215.086 103.215 215.182 103.575 215.182ZM112.108 217H109.822V208.306H112.108V209.494C112.432 209.086 112.846 208.75 113.35 208.486C113.854 208.222 114.364 208.09 114.88 208.09V210.322C114.724 210.286 114.514 210.268 114.25 210.268C113.866 210.268 113.458 210.364 113.026 210.556C112.594 210.748 112.288 210.982 112.108 211.258V217ZM123.688 215.902C122.848 216.778 121.732 217.216 120.34 217.216C118.948 217.216 117.832 216.778 116.992 215.902C116.164 215.014 115.75 213.928 115.75 212.644C115.75 211.36 116.164 210.28 116.992 209.404C117.832 208.528 118.948 208.09 120.34 208.09C121.732 208.09 122.848 208.528 123.688 209.404C124.528 210.28 124.948 211.36 124.948 212.644C124.948 213.928 124.528 215.014 123.688 215.902ZM118.72 214.462C119.116 214.942 119.656 215.182 120.34 215.182C121.024 215.182 121.564 214.942 121.96 214.462C122.368 213.97 122.572 213.364 122.572 212.644C122.572 211.936 122.368 211.342 121.96 210.862C121.564 210.37 121.024 210.124 120.34 210.124C119.656 210.124 119.116 210.37 118.72 210.862C118.324 211.342 118.126 211.936 118.126 212.644C118.126 213.364 118.324 213.97 118.72 214.462ZM134.924 217H132.62V215.884C131.912 216.772 131.018 217.216 129.938 217.216C128.81 217.216 127.886 216.814 127.166 216.01C126.446 215.194 126.086 214.078 126.086 212.662C126.086 211.27 126.446 210.16 127.166 209.332C127.886 208.504 128.81 208.09 129.938 208.09C131.042 208.09 131.936 208.534 132.62 209.422V204.994H134.924V217ZM130.64 215.182C131.024 215.182 131.402 215.092 131.774 214.912C132.146 214.72 132.428 214.48 132.62 214.192V211.114C132.428 210.826 132.146 210.592 131.774 210.412C131.402 210.22 131.024 210.124 130.64 210.124C129.992 210.124 129.464 210.358 129.056 210.826C128.648 211.294 128.444 211.906 128.444 212.662C128.444 213.406 128.648 214.012 129.056 214.48C129.464 214.948 129.992 215.182 130.64 215.182ZM145.345 217H143.059V215.902C142.279 216.778 141.259 217.216 139.999 217.216C139.063 217.216 138.361 216.976 137.893 216.496C137.425 216.016 137.191 215.344 137.191 214.48V208.306H139.477V213.58C139.477 214.648 140.011 215.182 141.079 215.182C141.883 215.182 142.543 214.852 143.059 214.192V208.306H145.345V217ZM151.664 217.216C150.32 217.216 149.216 216.79 148.352 215.938C147.488 215.086 147.056 213.988 147.056 212.644C147.056 211.312 147.488 210.22 148.352 209.368C149.216 208.516 150.32 208.09 151.664 208.09C153.2 208.09 154.346 208.612 155.102 209.656L153.608 211.06C153.188 210.436 152.576 210.124 151.772 210.124C151.076 210.124 150.506 210.358 150.062 210.826C149.63 211.282 149.414 211.888 149.414 212.644C149.414 213.4 149.63 214.012 150.062 214.48C150.506 214.948 151.076 215.182 151.772 215.182C152.552 215.182 153.164 214.87 153.608 214.246L155.102 215.632C154.346 216.688 153.2 217.216 151.664 217.216ZM159.513 217.216C158.709 217.216 158.097 217.012 157.677 216.604C157.257 216.196 157.047 215.608 157.047 214.84V210.304H155.607V208.306H157.047V205.93H159.351V208.306H161.115V210.304H159.351V214.228C159.351 214.504 159.423 214.732 159.567 214.912C159.711 215.092 159.903 215.182 160.143 215.182C160.503 215.182 160.767 215.098 160.935 214.93L161.421 216.658C161.001 217.03 160.365 217.216 159.513 217.216Z" fill="black"/>
<g clip-path="url(#clip0_14_232)">
<path d="M76.3293 139.624C76.5489 139.859 76.8783 140 77.2077 140H142.541C142.87 140 143.184 139.859 143.419 139.624C143.639 139.388 143.765 139.059 143.749 138.729L141.019 85.6471C141.019 85.6314 141.019 85.6157 141.019 85.6C141.019 85.5529 141.004 85.5059 141.004 85.4588V85.4275C141.004 85.4118 141.004 85.3961 141.004 85.3961C140.988 85.3333 140.972 85.2706 140.941 85.2235C140.941 85.2078 140.925 85.2078 140.925 85.1922L140.894 85.1294C140.894 85.1137 140.878 85.098 140.878 85.0824L136.8 78.2745C136.58 77.9137 136.188 77.6941 135.765 77.6941H133.255L134.243 73.4431C134.321 73.1294 134.259 72.8 134.102 72.5333C133.929 72.2667 133.663 72.0627 133.349 72L121.082 69.1294L121.067 69.0353C119.921 63.7961 115.231 60 109.867 60C106.243 60 102.792 61.7569 100.643 64.6902C100.596 64.7529 100.549 64.8471 100.502 64.9412L100.47 65.0196L85.0979 66.8392C84.4391 66.9176 83.9685 67.5137 84.0469 68.1725L85.1763 77.6941H84.0155C83.592 77.6941 83.1998 77.9137 82.9802 78.2745L78.9018 85.0824C78.8861 85.098 78.8861 85.1294 78.8704 85.1451L78.8548 85.1922C78.8234 85.2706 78.792 85.3333 78.7763 85.3961V85.4275C78.7606 85.4902 78.7606 85.5529 78.7449 85.6157V85.6471L75.9999 138.729C75.9842 139.059 76.1097 139.388 76.3293 139.624ZM132.659 80.1098H135.059L137.694 84.502H131.639L132.659 80.1098ZM131.592 74.0706L129.145 84.502H121.019L118.494 73.9922C118.416 73.6784 118.227 73.4118 117.945 73.2392C117.678 73.0667 117.349 73.0196 117.035 73.098L114.588 73.6941L115.388 70.2745L131.592 74.0706ZM118.557 84.502H97.8351L96.8626 80.4392L116.455 75.7333L118.557 84.502ZM104.408 64.251C105.976 63.0588 107.921 62.4 109.867 62.4C113.568 62.4 116.957 64.7373 118.29 68.2196L118.4 68.502L114.776 67.6549C114.463 67.5765 114.133 67.6392 113.867 67.8118C113.6 67.9843 113.396 68.251 113.333 68.5647L111.984 74.3373L110.337 74.7294L109.208 65.2078C109.176 64.8941 109.004 64.5961 108.753 64.4078C108.502 64.2039 108.188 64.1255 107.859 64.1569L103.953 64.6118L104.408 64.251ZM106.949 66.6824L107.968 75.2941L95.1214 78.3843C94.4783 78.5412 94.0704 79.1843 94.2273 79.8431L95.3567 84.5176H88.392L86.5724 69.0824L106.949 66.6824ZM84.69 80.1098H85.443L85.9606 84.502H82.0391L84.69 80.1098ZM78.4783 137.427L81.0665 86.9176H138.667V87.0588L141.255 137.584H78.4783V137.427Z" fill="black"/>
<path d="M109.867 114.133C116.157 114.133 121.287 109.02 121.287 102.714V97.6L121.396 97.5686C122.965 97.0196 124.016 95.5294 124.016 93.8666C124.016 91.7019 122.259 89.9451 120.094 89.9451C117.93 89.9451 116.173 91.7019 116.173 93.8666C116.173 95.5294 117.224 97.0039 118.793 97.5686L118.902 97.6V102.714C118.902 107.686 114.855 111.718 109.898 111.718C104.926 111.718 100.894 107.671 100.894 102.714V97.6L101.004 97.5686C102.573 97.0196 103.624 95.5294 103.624 93.8666C103.624 91.7019 101.867 89.9451 99.7023 89.9451C97.5376 89.9451 95.7808 91.7019 95.7808 93.8666C95.7808 95.5294 96.8317 97.0039 98.4004 97.5686L98.5102 97.6V102.714C98.4631 109.02 103.577 114.133 109.867 114.133ZM118.84 94.7764L118.73 94.5411C118.62 94.3215 118.573 94.1019 118.573 93.8823C118.573 93.051 119.247 92.3608 120.094 92.3608C120.942 92.3608 121.616 93.0353 121.616 93.8823C121.616 94.149 121.538 94.4 121.412 94.6353L121.271 94.8706L121.13 94.6353C120.91 94.2588 120.518 94.0392 120.094 94.0392H119.985C119.593 94.0392 119.216 94.2274 118.996 94.5568L118.84 94.7764ZM98.3533 94.6353C98.2121 94.4 98.1494 94.1333 98.1494 93.8823C98.1494 93.051 98.8239 92.3608 99.671 92.3608C100.518 92.3608 101.193 93.0353 101.193 93.8823C101.193 94.149 101.114 94.4 100.989 94.6353L100.847 94.8706L100.706 94.6353C100.487 94.2588 100.094 94.0392 99.671 94.0392C99.2474 94.0392 98.8553 94.2588 98.6357 94.6353L98.4945 94.8706L98.3533 94.6353Z" fill="black"/>
</g>
<defs>
<filter id="filter0_d_14_232" x="0" y="0" width="220" height="220" filterUnits="userSpaceOnUse" color-interpolation-filters="sRGB">
<feFlood flood-opacity="0" result="BackgroundImageFix"/>
<feColorMatrix in="SourceAlpha" type="matrix" values="0 0 0 0 0 0 0 0 0 0 0 0 0 0 0 0 0 0 127 0" result="hardAlpha"/>
<feOffset dy="10"/>
<feGaussianBlur stdDeviation="10"/>
<feColorMatrix type="matrix" values="0 0 0 0 0.366667 0 0 0 0 0.366667 0 0 0 0 0.366667 0 0 0 0.1 0"/>
<feBlend mode="normal" in2="BackgroundImageFix" result="effect1_dropShadow_14_232"/>
<feBlend mode="normal" in="SourceGraphic" in2="effect1_dropShadow_14_232" result="shape"/>
</filter>
<clipPath id="clip0_14_232">
<rect width="67.749" height="80" fill="white" transform="translate(76 60)"/>
</clipPath>
</defs>
</svg>
