<svg width="220" height="222" viewBox="0 0 220 222" fill="none" xmlns="http://www.w3.org/2000/svg">
<g filter="url(#filter0_d_14_239)">
<rect x="20" y="10" width="180" height="180" rx="90" fill="white"/>
</g>
<path d="M28.534 217H25.96V207.244H22.45V204.994H32.026V207.244H28.534V217ZM35.9388 217.216C34.5948 217.216 33.4848 216.796 32.6088 215.956C31.7328 215.116 31.2948 214.012 31.2948 212.644C31.2948 211.36 31.7148 210.28 32.5548 209.404C33.4068 208.528 34.4868 208.09 35.7948 208.09C37.0908 208.09 38.1408 208.534 38.9448 209.422C39.7488 210.298 40.1508 211.45 40.1508 212.878V213.382H33.6888C33.7608 213.958 34.0188 214.438 34.4628 214.822C34.9068 215.206 35.4828 215.398 36.1908 215.398C36.5748 215.398 36.9888 215.32 37.4328 215.164C37.8888 215.008 38.2488 214.798 38.5128 214.534L39.5208 216.01C38.6448 216.814 37.4508 217.216 35.9388 217.216ZM37.9368 211.834C37.9008 211.342 37.7028 210.898 37.3428 210.502C36.9948 210.106 36.4788 209.908 35.7948 209.908C35.1468 209.908 34.6428 210.106 34.2828 210.502C33.9228 210.886 33.7128 211.33 33.6528 211.834H37.9368ZM44.934 217.216C44.178 217.216 43.452 217.096 42.756 216.856C42.072 216.616 41.502 216.286 41.046 215.866L42.036 214.264C42.372 214.576 42.828 214.852 43.404 215.092C43.98 215.332 44.526 215.452 45.042 215.452C45.522 215.452 45.882 215.368 46.122 215.2C46.374 215.032 46.5 214.804 46.5 214.516C46.5 214.3 46.368 214.126 46.104 213.994C45.852 213.85 45.534 213.748 45.15 213.688C44.778 213.628 44.364 213.538 43.908 213.418C43.464 213.298 43.05 213.154 42.666 212.986C42.294 212.818 41.976 212.554 41.712 212.194C41.46 211.822 41.334 211.366 41.334 210.826C41.334 210.058 41.652 209.41 42.288 208.882C42.924 208.354 43.794 208.09 44.898 208.09C46.242 208.09 47.412 208.486 48.408 209.278L47.49 210.844C47.214 210.556 46.842 210.316 46.374 210.124C45.918 209.932 45.432 209.836 44.916 209.836C44.508 209.836 44.178 209.92 43.926 210.088C43.674 210.244 43.548 210.448 43.548 210.7C43.548 210.892 43.674 211.054 43.926 211.186C44.178 211.306 44.496 211.396 44.88 211.456C45.264 211.516 45.678 211.612 46.122 211.744C46.566 211.864 46.98 212.014 47.364 212.194C47.748 212.362 48.066 212.638 48.318 213.022C48.57 213.406 48.696 213.874 48.696 214.426C48.696 215.242 48.36 215.914 47.688 216.442C47.028 216.958 46.11 217.216 44.934 217.216ZM53.2961 217.216C52.4921 217.216 51.8801 217.012 51.4601 216.604C51.0401 216.196 50.8301 215.608 50.8301 214.84V210.304H49.3901V208.306H50.8301V205.93H53.1341V208.306H54.8981V210.304H53.1341V214.228C53.1341 214.504 53.2061 214.732 53.3501 214.912C53.4941 215.092 53.6861 215.182 53.9261 215.182C54.2861 215.182 54.5501 215.098 54.7181 214.93L55.2041 216.658C54.7841 217.03 54.1481 217.216 53.2961 217.216ZM68.5736 217H66.2876V216.1C65.6636 216.844 64.7456 217.216 63.5336 217.216C62.7536 217.216 62.0516 216.964 61.4276 216.46C60.8156 215.944 60.5096 215.236 60.5096 214.336C60.5096 213.4 60.8096 212.698 61.4096 212.23C62.0216 211.762 62.7296 211.528 63.5336 211.528C64.7696 211.528 65.6876 211.882 66.2876 212.59V211.42C66.2876 210.976 66.1136 210.622 65.7656 210.358C65.4176 210.094 64.9556 209.962 64.3796 209.962C63.4316 209.962 62.5856 210.304 61.8416 210.988L60.9776 209.458C62.0096 208.546 63.2756 208.09 64.7756 208.09C65.8916 208.09 66.8036 208.348 67.5116 208.864C68.2196 209.38 68.5736 210.22 68.5736 211.384V217ZM64.4516 215.668C65.3036 215.668 65.9156 215.416 66.2876 214.912V213.832C65.9156 213.328 65.3036 213.076 64.4516 213.076C63.9836 213.076 63.5936 213.196 63.2816 213.436C62.9696 213.664 62.8136 213.982 62.8136 214.39C62.8136 214.786 62.9696 215.098 63.2816 215.326C63.5936 215.554 63.9836 215.668 64.4516 215.668ZM78.995 217H76.709V211.744C76.709 210.664 76.175 210.124 75.107 210.124C74.279 210.124 73.619 210.466 73.127 211.15V217H70.841V208.306H73.127V209.44C73.883 208.54 74.897 208.09 76.169 208.09C77.105 208.09 77.807 208.336 78.275 208.828C78.755 209.32 78.995 209.998 78.995 210.862V217ZM89.5449 217H87.2409V215.884C86.5329 216.772 85.6389 217.216 84.5589 217.216C83.4309 217.216 82.5069 216.814 81.7869 216.01C81.0669 215.194 80.7069 214.078 80.7069 212.662C80.7069 211.27 81.0669 210.16 81.7869 209.332C82.5069 208.504 83.4309 208.09 84.5589 208.09C85.6629 208.09 86.5569 208.534 87.2409 209.422V204.994H89.5449V217ZM85.2609 215.182C85.6449 215.182 86.0229 215.092 86.3949 214.912C86.7669 214.72 87.0489 214.48 87.2409 214.192V211.114C87.0489 210.826 86.7669 210.592 86.3949 210.412C86.0229 210.22 85.6449 210.124 85.2609 210.124C84.6129 210.124 84.0849 210.358 83.6769 210.826C83.2689 211.294 83.0649 211.906 83.0649 212.662C83.0649 213.406 83.2689 214.012 83.6769 214.48C84.0849 214.948 84.6129 215.182 85.2609 215.182ZM99.5492 217.216C98.7932 217.216 98.0672 217.096 97.3712 216.856C96.6872 216.616 96.1172 216.286 95.6612 215.866L96.6512 214.264C96.9872 214.576 97.4432 214.852 98.0192 215.092C98.5952 215.332 99.1412 215.452 99.6572 215.452C100.137 215.452 100.497 215.368 100.737 215.2C100.989 215.032 101.115 214.804 101.115 214.516C101.115 214.3 100.983 214.126 100.719 213.994C100.467 213.85 100.149 213.748 99.7652 213.688C99.3932 213.628 98.9792 213.538 98.5232 213.418C98.0792 213.298 97.6652 213.154 97.2812 212.986C96.9092 212.818 96.5912 212.554 96.3272 212.194C96.0752 211.822 95.9492 211.366 95.9492 210.826C95.9492 210.058 96.2672 209.41 96.9032 208.882C97.5392 208.354 98.4092 208.09 99.5132 208.09C100.857 208.09 102.027 208.486 103.023 209.278L102.105 210.844C101.829 210.556 101.457 210.316 100.989 210.124C100.533 209.932 100.047 209.836 99.5312 209.836C99.1232 209.836 98.7932 209.92 98.5412 210.088C98.2892 210.244 98.1632 210.448 98.1632 210.7C98.1632 210.892 98.2892 211.054 98.5412 211.186C98.7932 211.306 99.1112 211.396 99.4952 211.456C99.8792 211.516 100.293 211.612 100.737 211.744C101.181 211.864 101.595 212.014 101.979 212.194C102.363 212.362 102.681 212.638 102.933 213.022C103.185 213.406 103.311 213.874 103.311 214.426C103.311 215.242 102.975 215.914 102.303 216.442C101.643 216.958 100.725 217.216 99.5492 217.216ZM113.167 217H110.881V211.708C110.881 211.132 110.743 210.724 110.467 210.484C110.191 210.244 109.789 210.124 109.261 210.124C108.457 210.124 107.797 210.466 107.281 211.15V217H104.995V204.994H107.281V209.44C107.593 209.068 108.013 208.75 108.541 208.486C109.081 208.222 109.681 208.09 110.341 208.09C111.277 208.09 111.979 208.33 112.447 208.81C112.927 209.29 113.167 209.962 113.167 210.826V217ZM122.943 217H120.657V216.1C120.033 216.844 119.115 217.216 117.903 217.216C117.123 217.216 116.421 216.964 115.797 216.46C115.185 215.944 114.879 215.236 114.879 214.336C114.879 213.4 115.179 212.698 115.779 212.23C116.391 211.762 117.099 211.528 117.903 211.528C119.139 211.528 120.057 211.882 120.657 212.59V211.42C120.657 210.976 120.483 210.622 120.135 210.358C119.787 210.094 119.325 209.962 118.749 209.962C117.801 209.962 116.955 210.304 116.211 210.988L115.347 209.458C116.379 208.546 117.645 208.09 119.145 208.09C120.261 208.09 121.173 208.348 121.881 208.864C122.589 209.38 122.943 210.22 122.943 211.384V217ZM118.821 215.668C119.673 215.668 120.285 215.416 120.657 214.912V213.832C120.285 213.328 119.673 213.076 118.821 213.076C118.353 213.076 117.963 213.196 117.651 213.436C117.339 213.664 117.183 213.982 117.183 214.39C117.183 214.786 117.339 215.098 117.651 215.326C117.963 215.554 118.353 215.668 118.821 215.668ZM127.496 217H125.21V208.306H127.496V209.494C127.82 209.086 128.234 208.75 128.738 208.486C129.242 208.222 129.752 208.09 130.268 208.09V210.322C130.112 210.286 129.902 210.268 129.638 210.268C129.254 210.268 128.846 210.364 128.414 210.556C127.982 210.748 127.676 210.982 127.496 211.258V217ZM135.783 217.216C134.439 217.216 133.329 216.796 132.453 215.956C131.577 215.116 131.139 214.012 131.139 212.644C131.139 211.36 131.559 210.28 132.399 209.404C133.251 208.528 134.331 208.09 135.639 208.09C136.935 208.09 137.985 208.534 138.789 209.422C139.593 210.298 139.995 211.45 139.995 212.878V213.382H133.533C133.605 213.958 133.863 214.438 134.307 214.822C134.751 215.206 135.327 215.398 136.035 215.398C136.419 215.398 136.833 215.32 137.277 215.164C137.733 215.008 138.093 214.798 138.357 214.534L139.365 216.01C138.489 216.814 137.295 217.216 135.783 217.216ZM137.781 211.834C137.745 211.342 137.547 210.898 137.187 210.502C136.839 210.106 136.323 209.908 135.639 209.908C134.991 209.908 134.487 210.106 134.127 210.502C133.767 210.886 133.557 211.33 133.497 211.834H137.781ZM148.537 217H146.251V208.306H148.537V209.494C148.861 209.086 149.275 208.75 149.779 208.486C150.283 208.222 150.793 208.09 151.309 208.09V210.322C151.153 210.286 150.943 210.268 150.679 210.268C150.295 210.268 149.887 210.364 149.455 210.556C149.023 210.748 148.717 210.982 148.537 211.258V217ZM156.824 217.216C155.48 217.216 154.37 216.796 153.494 215.956C152.618 215.116 152.18 214.012 152.18 212.644C152.18 211.36 152.6 210.28 153.44 209.404C154.292 208.528 155.372 208.09 156.68 208.09C157.976 208.09 159.026 208.534 159.83 209.422C160.634 210.298 161.036 211.45 161.036 212.878V213.382H154.574C154.646 213.958 154.904 214.438 155.348 214.822C155.792 215.206 156.368 215.398 157.076 215.398C157.46 215.398 157.874 215.32 158.318 215.164C158.774 215.008 159.134 214.798 159.398 214.534L160.406 216.01C159.53 216.814 158.336 217.216 156.824 217.216ZM158.822 211.834C158.786 211.342 158.588 210.898 158.228 210.502C157.88 210.106 157.364 209.908 156.68 209.908C156.032 209.908 155.528 210.106 155.168 210.502C154.808 210.886 154.598 211.33 154.538 211.834H158.822ZM167.403 217H164.937L161.445 208.306H163.893L166.161 214.354L168.429 208.306H170.895L167.403 217ZM173.049 207.37C172.677 207.37 172.353 207.238 172.077 206.974C171.813 206.698 171.681 206.374 171.681 206.002C171.681 205.63 171.813 205.312 172.077 205.048C172.353 204.784 172.677 204.652 173.049 204.652C173.433 204.652 173.757 204.784 174.021 205.048C174.285 205.312 174.417 205.63 174.417 206.002C174.417 206.374 174.285 206.698 174.021 206.974C173.757 207.238 173.433 207.37 173.049 207.37ZM174.201 217H171.915V208.306H174.201V217ZM180.554 217.216C179.21 217.216 178.1 216.796 177.224 215.956C176.348 215.116 175.91 214.012 175.91 212.644C175.91 211.36 176.33 210.28 177.17 209.404C178.022 208.528 179.102 208.09 180.41 208.09C181.706 208.09 182.756 208.534 183.56 209.422C184.364 210.298 184.766 211.45 184.766 212.878V213.382H178.304C178.376 213.958 178.634 214.438 179.078 214.822C179.522 215.206 180.098 215.398 180.806 215.398C181.19 215.398 181.604 215.32 182.048 215.164C182.504 215.008 182.864 214.798 183.128 214.534L184.136 216.01C183.26 216.814 182.066 217.216 180.554 217.216ZM182.552 211.834C182.516 211.342 182.318 210.898 181.958 210.502C181.61 210.106 181.094 209.908 180.41 209.908C179.762 209.908 179.258 210.106 178.898 210.502C178.538 210.886 178.328 211.33 178.268 211.834H182.552ZM196.479 217H194.049L192.213 211.078L190.377 217H187.929L185.283 208.306H187.659L189.279 214.156L191.187 208.306H193.221L195.129 214.156L196.749 208.306H199.125L196.479 217Z" fill="black"/>
<g clip-path="url(#clip0_14_239)">
<path d="M91.2963 73.3044C91.2963 72.201 90.3978 71.2867 89.2786 71.2867H85.8737L85.9525 70.7507C86.4411 67.1882 88.585 66.9833 89.3889 66.9202C89.9564 66.8729 90.3978 66.4 90.3978 65.8167V61.1034C90.3978 60.8039 90.2717 60.5044 90.051 60.2995C89.8461 60.1103 89.5781 60 89.2943 60C89.2786 60 89.2471 60 89.2313 60C84.4392 60.268 78.7485 62.6956 78.7485 72.7212V80.9182C78.7485 82.0217 79.6471 82.936 80.7663 82.936H89.2943C89.8303 82.936 90.3347 82.731 90.7131 82.3527C91.0914 81.9744 91.2963 81.47 91.2963 80.934V73.3044ZM89.0894 80.7291H80.9554V72.7212C80.9554 66.6207 83.1308 63.2473 87.6234 62.4118L88.1909 62.3015V64.8867L87.8599 64.9813C85.9367 65.5645 83.651 67.33 83.651 72.3901C83.651 73.0049 84.1397 73.4936 84.7544 73.4936H89.1052V80.7291H89.0894Z" fill="black"/>
<path d="M107.407 73.3044C107.407 72.201 106.509 71.2867 105.389 71.2867H102L102.079 70.7507C102.568 67.1882 104.711 66.9833 105.515 66.9202C106.083 66.8729 106.524 66.4 106.524 65.8167V61.1034C106.524 60.8039 106.398 60.5044 106.177 60.2995C105.973 60.1103 105.705 60 105.421 60C105.405 60 105.374 60 105.358 60C100.581 60.268 94.875 62.6956 94.875 72.7212V80.9182C94.875 82.0217 95.7735 82.936 96.8927 82.936H105.421C105.957 82.936 106.461 82.731 106.84 82.3527C107.218 81.9744 107.423 81.47 107.423 80.934V73.3044H107.407ZM105.2 80.7291H97.0661V72.7212C97.0661 66.6207 99.2415 63.2473 103.734 62.4118L104.302 62.3015V64.8867L103.971 64.9813C102.047 65.5645 99.7617 67.33 99.7617 72.3901C99.7617 73.0049 100.25 73.4936 100.865 73.4936H105.216V80.7291H105.2Z" fill="black"/>
<path d="M113.586 72.0433C113.239 72.0433 112.892 72.1852 112.64 72.4374C112.388 72.6896 112.246 73.0364 112.246 73.3832C112.246 73.73 112.388 74.0768 112.64 74.329C112.892 74.5813 113.239 74.7231 113.586 74.7231C113.933 74.7231 114.28 74.5813 114.532 74.329C114.784 74.0768 114.926 73.73 114.926 73.3832C114.926 73.0364 114.784 72.6896 114.532 72.4374C114.28 72.1852 113.933 72.0433 113.586 72.0433Z" fill="black"/>
<path d="M75.3123 85.8207C75.1074 85.7103 74.8867 85.6473 74.666 85.6473C74.5399 85.6473 74.4138 85.663 74.3034 85.6946C73.9567 85.7891 73.6729 86.0256 73.4995 86.3251C71.2138 90.4394 70 95.0896 70 99.8187C70 115.141 82.469 127.594 97.7754 127.594H114.942L126.954 139.606C127.206 139.858 127.537 140 127.9 140C128.073 140 128.246 139.968 128.42 139.905C128.924 139.7 129.239 139.212 129.239 138.66V126.759L129.413 126.711C135.056 125.245 140.211 121.951 143.915 117.442C147.982 112.493 150.221 106.234 150.221 99.8187C150.221 84.4965 137.752 72.0433 122.445 72.0433H120.459C119.718 72.0433 119.119 72.6423 119.119 73.3832C119.119 74.1241 119.718 74.7231 120.459 74.7231H122.445C136.286 74.7231 147.541 85.9783 147.541 99.8187C147.541 111.626 139.155 121.966 127.616 124.378C127.001 124.504 126.544 125.056 126.544 125.687V135.413L116.424 125.293C116.171 125.04 115.825 124.898 115.478 124.898H97.7754C83.935 124.914 72.6798 113.659 72.6798 99.8187C72.6798 95.5468 73.7675 91.3379 75.8325 87.6335C76.1951 86.9872 75.9586 86.1675 75.3123 85.8207Z" fill="black"/>
<path d="M129.523 87.7438H90.7134C89.9725 87.7438 89.3735 88.3429 89.3735 89.0837C89.3735 89.8246 89.9725 90.4236 90.7134 90.4236H129.508C130.248 90.4236 130.847 89.8246 130.847 89.0837C130.847 88.3429 130.264 87.7438 129.523 87.7438Z" fill="black"/>
<path d="M129.523 96.1458H90.7134C89.9725 96.1458 89.3735 96.7448 89.3735 97.4857C89.3735 98.2266 89.9725 98.8256 90.7134 98.8256H129.508C130.248 98.8256 130.847 98.2266 130.847 97.4857C130.847 96.7448 130.264 96.1458 129.523 96.1458Z" fill="black"/>
<path d="M129.523 104.564H90.7134C89.9725 104.564 89.3735 105.163 89.3735 105.903C89.3735 106.644 89.9725 107.243 90.7134 107.243H129.508C130.248 107.243 130.847 106.644 130.847 105.903C130.847 105.163 130.264 104.564 129.523 104.564Z" fill="black"/>
<path d="M129.523 112.966H108.841C108.1 112.966 107.501 113.565 107.501 114.305C107.501 115.046 108.1 115.645 108.841 115.645H129.523C130.264 115.645 130.863 115.046 130.863 114.305C130.863 113.565 130.248 112.966 129.523 112.966Z" fill="black"/>
<path d="M99.9666 112.966H99.9351C99.1942 112.966 98.5952 113.565 98.5952 114.305C98.5952 115.046 99.1942 115.645 99.9351 115.645H99.9666C100.708 115.645 101.307 115.046 101.307 114.305C101.307 113.565 100.708 112.966 99.9666 112.966Z" fill="black"/>
</g>
<defs>
<filter id="filter0_d_14_239" x="0" y="0" width="220" height="220" filterUnits="userSpaceOnUse" color-interpolation-filters="sRGB">
<feFlood flood-opacity="0" result="BackgroundImageFix"/>
<feColorMatrix in="SourceAlpha" type="matrix" values="0 0 0 0 0 0 0 0 0 0 0 0 0 0 0 0 0 0 127 0" result="hardAlpha"/>
<feOffset dy="10"/>
<feGaussianBlur stdDeviation="10"/>
<feColorMatrix type="matrix" values="0 0 0 0 0.366667 0 0 0 0 0.366667 0 0 0 0 0.366667 0 0 0 0.1 0"/>
<feBlend mode="normal" in2="BackgroundImageFix" result="effect1_dropShadow_14_239"/>
<feBlend mode="normal" in="SourceGraphic" in2="effect1_dropShadow_14_239" result="shape"/>
</filter>
<clipPath id="clip0_14_239">
<rect width="80.2365" height="80" fill="white" transform="translate(70 60)"/>
</clipPath>
</defs>
</svg>
