<svg width="220" height="222" viewBox="0 0 220 222" fill="none" xmlns="http://www.w3.org/2000/svg">
<g filter="url(#filter0_d_14_78)">
<rect x="20" y="10" width="180" height="180" rx="90" fill="white"/>
</g>
<path d="M26.002 217.234C24.202 217.234 22.684 216.658 21.448 215.506C20.224 214.354 19.612 212.854 19.612 211.006C19.612 209.146 20.224 207.646 21.448 206.506C22.684 205.366 24.202 204.796 26.002 204.796C28.186 204.796 29.842 205.69 30.97 207.478L28.846 208.63C28.558 208.174 28.162 207.802 27.658 207.514C27.166 207.214 26.614 207.064 26.002 207.064C24.91 207.064 24.01 207.436 23.302 208.18C22.594 208.924 22.24 209.866 22.24 211.006C22.24 212.146 22.594 213.088 23.302 213.832C24.01 214.576 24.91 214.948 26.002 214.948C26.506 214.948 26.992 214.858 27.46 214.678C27.928 214.498 28.294 214.282 28.558 214.03V212.59H25.39V210.358H31.114V214.966C29.758 216.478 28.054 217.234 26.002 217.234ZM37.1751 217.216C35.8311 217.216 34.7211 216.796 33.8451 215.956C32.9691 215.116 32.5311 214.012 32.5311 212.644C32.5311 211.36 32.9511 210.28 33.7911 209.404C34.6431 208.528 35.7231 208.09 37.0311 208.09C38.3271 208.09 39.3771 208.534 40.1811 209.422C40.9851 210.298 41.3871 211.45 41.3871 212.878V213.382H34.9251C34.9971 213.958 35.2551 214.438 35.6991 214.822C36.1431 215.206 36.7191 215.398 37.4271 215.398C37.8111 215.398 38.2251 215.32 38.6691 215.164C39.1251 215.008 39.4851 214.798 39.7491 214.534L40.7571 216.01C39.8811 216.814 38.6871 217.216 37.1751 217.216ZM39.1731 211.834C39.1371 211.342 38.9391 210.898 38.5791 210.502C38.2311 210.106 37.7151 209.908 37.0311 209.908C36.3831 209.908 35.8791 210.106 35.5191 210.502C35.1591 210.886 34.9491 211.33 34.8891 211.834H39.1731ZM45.9543 217.216C45.1503 217.216 44.5383 217.012 44.1183 216.604C43.6983 216.196 43.4883 215.608 43.4883 214.84V210.304H42.0483V208.306H43.4883V205.93H45.7923V208.306H47.5563V210.304H45.7923V214.228C45.7923 214.504 45.8643 214.732 46.0083 214.912C46.1523 215.092 46.3443 215.182 46.5843 215.182C46.9443 215.182 47.2083 215.098 47.3763 214.93L47.8623 216.658C47.4423 217.03 46.8063 217.216 45.9543 217.216ZM58.8018 217H56.2458V208.288L54.2478 210.322L52.7898 208.792L56.5698 204.994H58.8018V217ZM68.3622 216.298C67.5942 216.91 66.6642 217.216 65.5722 217.216C64.4802 217.216 63.5442 216.91 62.7642 216.298C61.9962 215.674 61.4442 214.906 61.1082 213.994C60.7722 213.082 60.6042 212.086 60.6042 211.006C60.6042 209.926 60.7722 208.93 61.1082 208.018C61.4442 207.106 61.9962 206.344 62.7642 205.732C63.5442 205.12 64.4802 204.814 65.5722 204.814C66.6642 204.814 67.5942 205.12 68.3622 205.732C69.1302 206.344 69.6822 207.106 70.0182 208.018C70.3662 208.93 70.5402 209.926 70.5402 211.006C70.5402 212.086 70.3662 213.082 70.0182 213.994C69.6822 214.906 69.1302 215.674 68.3622 216.298ZM63.7722 213.868C64.1562 214.588 64.7562 214.948 65.5722 214.948C66.3882 214.948 66.9822 214.588 67.3542 213.868C67.7382 213.148 67.9302 212.194 67.9302 211.006C67.9302 209.818 67.7382 208.87 67.3542 208.162C66.9822 207.442 66.3882 207.082 65.5722 207.082C64.7562 207.082 64.1562 207.442 63.7722 208.162C63.3882 208.87 63.1962 209.818 63.1962 211.006C63.1962 212.194 63.3882 213.148 63.7722 213.868ZM79.5243 216.298C78.7563 216.91 77.8263 217.216 76.7343 217.216C75.6423 217.216 74.7063 216.91 73.9263 216.298C73.1583 215.674 72.6063 214.906 72.2703 213.994C71.9343 213.082 71.7663 212.086 71.7663 211.006C71.7663 209.926 71.9343 208.93 72.2703 208.018C72.6063 207.106 73.1583 206.344 73.9263 205.732C74.7063 205.12 75.6423 204.814 76.7343 204.814C77.8263 204.814 78.7563 205.12 79.5243 205.732C80.2923 206.344 80.8443 207.106 81.1803 208.018C81.5283 208.93 81.7023 209.926 81.7023 211.006C81.7023 212.086 81.5283 213.082 81.1803 213.994C80.8443 214.906 80.2923 215.674 79.5243 216.298ZM74.9343 213.868C75.3183 214.588 75.9183 214.948 76.7343 214.948C77.5503 214.948 78.1443 214.588 78.5163 213.868C78.9003 213.148 79.0923 212.194 79.0923 211.006C79.0923 209.818 78.9003 208.87 78.5163 208.162C78.1443 207.442 77.5503 207.082 76.7343 207.082C75.9183 207.082 75.3183 207.442 74.9343 208.162C74.5503 208.87 74.3583 209.818 74.3583 211.006C74.3583 212.194 74.5503 213.148 74.9343 213.868ZM85.8264 210.79C84.9264 210.79 84.1944 210.514 83.6304 209.962C83.0664 209.398 82.7844 208.69 82.7844 207.838C82.7844 206.974 83.0664 206.254 83.6304 205.678C84.1944 205.102 84.9264 204.814 85.8264 204.814C86.7384 204.814 87.4764 205.102 88.0404 205.678C88.6044 206.254 88.8864 206.974 88.8864 207.838C88.8864 208.69 88.6044 209.398 88.0404 209.962C87.4764 210.514 86.7384 210.79 85.8264 210.79ZM86.0064 217H84.6564L92.3244 204.994H93.6924L86.0064 217ZM94.6284 216.37C94.0644 216.934 93.3324 217.216 92.4324 217.216C91.5324 217.216 90.8004 216.934 90.2364 216.37C89.6724 215.806 89.3904 215.098 89.3904 214.246C89.3904 213.382 89.6724 212.662 90.2364 212.086C90.8004 211.51 91.5324 211.222 92.4324 211.222C93.3324 211.222 94.0644 211.51 94.6284 212.086C95.2044 212.662 95.4924 213.382 95.4924 214.246C95.4924 215.098 95.2044 215.806 94.6284 216.37ZM85.8264 209.386C86.2464 209.386 86.5884 209.248 86.8524 208.972C87.1164 208.684 87.2484 208.306 87.2484 207.838C87.2484 207.346 87.1164 206.956 86.8524 206.668C86.5884 206.38 86.2464 206.236 85.8264 206.236C85.4064 206.236 85.0644 206.38 84.8004 206.668C84.5364 206.956 84.4044 207.346 84.4044 207.838C84.4044 208.294 84.5364 208.666 84.8004 208.954C85.0764 209.242 85.4184 209.386 85.8264 209.386ZM91.4064 215.398C91.6704 215.674 92.0124 215.812 92.4324 215.812C92.8524 215.812 93.1944 215.674 93.4584 215.398C93.7344 215.11 93.8724 214.726 93.8724 214.246C93.8724 213.754 93.7344 213.364 93.4584 213.076C93.1944 212.788 92.8524 212.644 92.4324 212.644C92.0124 212.644 91.6704 212.788 91.4064 213.076C91.1424 213.364 91.0104 213.754 91.0104 214.246C91.0104 214.726 91.1424 215.11 91.4064 215.398ZM114.765 217H112.461V211.51C112.461 210.586 112.029 210.124 111.165 210.124C110.793 210.124 110.445 210.226 110.121 210.43C109.809 210.634 109.557 210.868 109.365 211.132V217H107.061V211.51C107.061 210.586 106.629 210.124 105.765 210.124C105.405 210.124 105.063 210.226 104.739 210.43C104.415 210.634 104.157 210.874 103.965 211.15V217H101.679V208.306H103.965V209.44C104.181 209.128 104.559 208.828 105.099 208.54C105.639 208.24 106.209 208.09 106.809 208.09C108.069 208.09 108.873 208.618 109.221 209.674C109.497 209.242 109.905 208.87 110.445 208.558C110.997 208.246 111.585 208.09 112.209 208.09C113.025 208.09 113.655 208.312 114.099 208.756C114.543 209.188 114.765 209.842 114.765 210.718V217ZM124.387 215.902C123.547 216.778 122.431 217.216 121.039 217.216C119.647 217.216 118.531 216.778 117.691 215.902C116.863 215.014 116.449 213.928 116.449 212.644C116.449 211.36 116.863 210.28 117.691 209.404C118.531 208.528 119.647 208.09 121.039 208.09C122.431 208.09 123.547 208.528 124.387 209.404C125.227 210.28 125.647 211.36 125.647 212.644C125.647 213.928 125.227 215.014 124.387 215.902ZM119.419 214.462C119.815 214.942 120.355 215.182 121.039 215.182C121.723 215.182 122.263 214.942 122.659 214.462C123.067 213.97 123.271 213.364 123.271 212.644C123.271 211.936 123.067 211.342 122.659 210.862C122.263 210.37 121.723 210.124 121.039 210.124C120.355 210.124 119.815 210.37 119.419 210.862C119.023 211.342 118.825 211.936 118.825 212.644C118.825 213.364 119.023 213.97 119.419 214.462ZM135.497 217H133.211V211.744C133.211 210.664 132.677 210.124 131.609 210.124C130.781 210.124 130.121 210.466 129.629 211.15V217H127.343V208.306H129.629V209.44C130.385 208.54 131.399 208.09 132.671 208.09C133.607 208.09 134.309 208.336 134.777 208.828C135.257 209.32 135.497 209.998 135.497 210.862V217ZM141.853 217.216C140.509 217.216 139.399 216.796 138.523 215.956C137.647 215.116 137.209 214.012 137.209 212.644C137.209 211.36 137.629 210.28 138.469 209.404C139.321 208.528 140.401 208.09 141.709 208.09C143.005 208.09 144.055 208.534 144.859 209.422C145.663 210.298 146.065 211.45 146.065 212.878V213.382H139.603C139.675 213.958 139.933 214.438 140.377 214.822C140.821 215.206 141.397 215.398 142.105 215.398C142.489 215.398 142.903 215.32 143.347 215.164C143.803 215.008 144.163 214.798 144.427 214.534L145.435 216.01C144.559 216.814 143.365 217.216 141.853 217.216ZM143.851 211.834C143.815 211.342 143.617 210.898 143.257 210.502C142.909 210.106 142.393 209.908 141.709 209.908C141.061 209.908 140.557 210.106 140.197 210.502C139.837 210.886 139.627 211.33 139.567 211.834H143.851ZM147.41 220.402L147.752 218.35C147.968 218.446 148.208 218.494 148.472 218.494C149.084 218.494 149.486 218.284 149.678 217.864L150.002 217.126L146.474 208.306H148.922L151.19 214.354L153.458 208.306H155.924L151.838 218.422C151.538 219.19 151.118 219.724 150.578 220.024C150.038 220.336 149.36 220.504 148.544 220.528C148.124 220.528 147.746 220.486 147.41 220.402ZM163.836 214.21C164.028 214.486 164.31 214.72 164.682 214.912C165.054 215.092 165.426 215.182 165.798 215.182C166.458 215.182 166.992 214.954 167.4 214.498C167.808 214.03 168.012 213.418 168.012 212.662C168.012 211.906 167.808 211.294 167.4 210.826C166.992 210.358 166.458 210.124 165.798 210.124C165.426 210.124 165.054 210.22 164.682 210.412C164.31 210.604 164.028 210.844 163.836 211.132V214.21ZM163.836 217H161.55V204.994H163.836V209.422C164.52 208.534 165.414 208.09 166.518 208.09C167.646 208.09 168.57 208.504 169.29 209.332C170.01 210.16 170.37 211.27 170.37 212.662C170.37 214.078 170.01 215.194 169.29 216.01C168.57 216.814 167.646 217.216 166.518 217.216C165.438 217.216 164.544 216.772 163.836 215.884V217ZM179.603 217H177.317V216.1C176.693 216.844 175.775 217.216 174.563 217.216C173.783 217.216 173.081 216.964 172.457 216.46C171.845 215.944 171.539 215.236 171.539 214.336C171.539 213.4 171.839 212.698 172.439 212.23C173.051 211.762 173.759 211.528 174.563 211.528C175.799 211.528 176.717 211.882 177.317 212.59V211.42C177.317 210.976 177.143 210.622 176.795 210.358C176.447 210.094 175.985 209.962 175.409 209.962C174.461 209.962 173.615 210.304 172.871 210.988L172.007 209.458C173.039 208.546 174.305 208.09 175.805 208.09C176.921 208.09 177.833 208.348 178.541 208.864C179.249 209.38 179.603 210.22 179.603 211.384V217ZM175.481 215.668C176.333 215.668 176.945 215.416 177.317 214.912V213.832C176.945 213.328 176.333 213.076 175.481 213.076C175.013 213.076 174.623 213.196 174.311 213.436C173.999 213.664 173.843 213.982 173.843 214.39C173.843 214.786 173.999 215.098 174.311 215.326C174.623 215.554 175.013 215.668 175.481 215.668ZM185.92 217.216C184.576 217.216 183.472 216.79 182.608 215.938C181.744 215.086 181.312 213.988 181.312 212.644C181.312 211.312 181.744 210.22 182.608 209.368C183.472 208.516 184.576 208.09 185.92 208.09C187.456 208.09 188.602 208.612 189.358 209.656L187.864 211.06C187.444 210.436 186.832 210.124 186.028 210.124C185.332 210.124 184.762 210.358 184.318 210.826C183.886 211.282 183.67 211.888 183.67 212.644C183.67 213.4 183.886 214.012 184.318 214.48C184.762 214.948 185.332 215.182 186.028 215.182C186.808 215.182 187.42 214.87 187.864 214.246L189.358 215.632C188.602 216.688 187.456 217.216 185.92 217.216ZM199.349 217H196.487L194.183 213.652L193.139 214.768V217H190.853V204.994H193.139V212.176L196.433 208.306H199.241L195.803 212.248L199.349 217Z" fill="black"/>
<g clip-path="url(#clip0_14_78)">
<path d="M115.225 97.4076C115.225 93.8926 112.346 91.0139 108.831 91.0139H103.662C101.483 91.0139 99.7176 89.2485 99.7176 87.0696C99.7176 84.8907 101.483 83.1252 103.662 83.1252H110.119C111.582 83.1252 112.775 84.3181 112.775 85.7813C112.775 86.4493 113.316 87.006 114 87.006C114.668 87.006 115.225 86.4652 115.225 85.7813C115.225 82.9662 112.934 80.6918 110.119 80.6759H107.463V76.7316C107.463 76.0636 106.922 75.507 106.239 75.507C105.571 75.507 105.014 76.0477 105.014 76.7316V80.6759H103.646C100.115 80.6759 97.2524 83.5388 97.2524 87.0696C97.2524 90.6004 100.115 93.4632 103.646 93.4632H108.831C111.01 93.4632 112.775 95.2286 112.775 97.4076C112.775 99.5865 111.01 101.352 108.831 101.352H102.374C100.91 101.352 99.7176 100.159 99.7176 98.6958C99.7176 98.0278 99.1769 97.4712 98.493 97.4712C97.825 97.4712 97.2683 98.0119 97.2683 98.6958C97.2683 101.511 99.5586 103.785 102.374 103.801H105.014V107.746C105.014 108.414 105.555 108.97 106.239 108.97C106.907 108.97 107.463 108.429 107.463 107.746V103.801H108.831C112.346 103.801 115.209 100.938 115.225 97.4076Z" fill="black"/>
<path d="M145.746 116.35C144.569 111.26 141.34 106.807 136.855 104.119L136.346 103.817L136.553 103.26C137.841 99.7137 138.493 96.0079 138.477 92.2386C138.477 74.4572 124.02 60 106.239 60C88.4573 60 74 74.4572 74 92.2386C74 110.02 88.4573 124.477 106.239 124.477C106.573 124.477 106.938 124.477 107.368 124.461L107.956 124.445L108.083 125.018C109.245 130.044 112.282 134.322 116.656 137.058C121.03 139.793 126.215 140.668 131.241 139.507C141.626 137.105 148.131 126.72 145.746 116.35ZM107.861 117.543C107.686 118.577 107.606 119.626 107.606 120.676C107.606 120.883 107.606 121.089 107.622 121.296L107.638 122.012L106.922 122.028C106.7 122.028 106.477 122.028 106.254 122.028C89.8091 122.028 76.4493 108.668 76.4493 92.2386C76.4493 75.8091 89.8091 62.4493 106.239 62.4493C122.668 62.4493 136.028 75.8091 136.028 92.2386C136.028 95.5944 135.471 98.8867 134.374 102.052L134.135 102.736L133.451 102.497C132.274 102.068 131.05 101.765 129.809 101.575L128.95 101.447L129.252 100.62C130.239 97.9324 130.732 95.1014 130.732 92.2386C130.732 78.7356 119.742 67.7455 106.239 67.7455C92.7356 67.7455 81.7455 78.7356 81.7455 92.2386C81.7455 105.742 92.7356 116.732 106.239 116.732C106.525 116.732 106.827 116.732 107.129 116.716L108.004 116.684L107.861 117.543ZM108.736 114.139L108.29 114.187C107.59 114.25 106.891 114.282 106.239 114.282C94.0875 114.282 84.1948 104.39 84.1948 92.2386C84.1948 80.0875 94.0875 70.1948 106.239 70.1948C118.39 70.1948 128.282 80.0875 128.282 92.2386C128.298 95.2445 127.694 98.1869 126.485 100.954L126.31 101.368L125.865 101.4C118.294 101.813 111.63 106.664 108.895 113.742L108.736 114.139ZM126.915 137.551C117.61 137.551 110.04 129.98 110.04 120.676C110.04 111.372 117.61 103.801 126.915 103.801C136.219 103.801 143.789 111.372 143.789 120.676C143.773 129.964 136.219 137.535 126.915 137.551Z" fill="black"/>
<path d="M132.084 127.197H123.034C121.571 127.197 120.378 126.004 120.378 124.541V119.372C120.378 117.909 121.571 116.716 123.034 116.716H129.125L126.056 119.801C125.579 120.278 125.563 121.058 126.04 121.535C126.517 122.012 127.296 122.028 127.774 121.551L127.789 121.535L132.958 116.366C133.436 115.889 133.436 115.109 132.958 114.632L127.789 109.463C127.567 109.241 127.249 109.113 126.931 109.113C126.597 109.113 126.294 109.241 126.072 109.479C125.611 109.956 125.611 110.72 126.072 111.197L129.157 114.282H123.066C120.251 114.282 117.976 116.573 117.96 119.388V124.557C117.96 127.372 120.251 129.646 123.066 129.662H132.116C132.784 129.662 133.34 129.121 133.34 128.437C133.34 127.753 132.768 127.197 132.084 127.197Z" fill="black"/>
</g>
<defs>
<filter id="filter0_d_14_78" x="0" y="0" width="220" height="220" filterUnits="userSpaceOnUse" color-interpolation-filters="sRGB">
<feFlood flood-opacity="0" result="BackgroundImageFix"/>
<feColorMatrix in="SourceAlpha" type="matrix" values="0 0 0 0 0 0 0 0 0 0 0 0 0 0 0 0 0 0 127 0" result="hardAlpha"/>
<feOffset dy="10"/>
<feGaussianBlur stdDeviation="10"/>
<feColorMatrix type="matrix" values="0 0 0 0 0.366667 0 0 0 0 0.366667 0 0 0 0 0.366667 0 0 0 0.1 0"/>
<feBlend mode="normal" in2="BackgroundImageFix" result="effect1_dropShadow_14_78"/>
<feBlend mode="normal" in="SourceGraphic" in2="effect1_dropShadow_14_78" result="shape"/>
</filter>
<clipPath id="clip0_14_78">
<rect width="72.2386" height="80" fill="white" transform="translate(74 60)"/>
</clipPath>
</defs>
</svg>
