<svg width="220" height="222" viewBox="0 0 220 222" fill="none" xmlns="http://www.w3.org/2000/svg">
<g filter="url(#filter0_d_14_222)">
<rect x="20" y="10" width="180" height="180" rx="90" fill="white"/>
</g>
<path d="M54.002 217.216C52.178 217.216 50.654 216.64 49.43 215.488C48.218 214.324 47.612 212.83 47.612 211.006C47.612 209.182 48.218 207.694 49.43 206.542C50.654 205.378 52.178 204.796 54.002 204.796C56.246 204.796 57.92 205.774 59.024 207.73L56.828 208.81C56.564 208.306 56.174 207.892 55.658 207.568C55.154 207.232 54.602 207.064 54.002 207.064C52.91 207.064 52.01 207.436 51.302 208.18C50.594 208.924 50.24 209.866 50.24 211.006C50.24 212.146 50.594 213.088 51.302 213.832C52.01 214.576 52.91 214.948 54.002 214.948C54.602 214.948 55.154 214.786 55.658 214.462C56.174 214.138 56.564 213.718 56.828 213.202L59.024 214.264C57.884 216.232 56.21 217.216 54.002 217.216ZM68.6634 217H66.3774V211.708C66.3774 211.132 66.2394 210.724 65.9634 210.484C65.6874 210.244 65.2854 210.124 64.7574 210.124C63.9534 210.124 63.2934 210.466 62.7774 211.15V217H60.4914V204.994H62.7774V209.44C63.0894 209.068 63.5094 208.75 64.0374 208.486C64.5774 208.222 65.1774 208.09 65.8374 208.09C66.7734 208.09 67.4754 208.33 67.9434 208.81C68.4234 209.29 68.6634 209.962 68.6634 210.826V217ZM78.3128 215.902C77.4728 216.778 76.3568 217.216 74.9648 217.216C73.5728 217.216 72.4568 216.778 71.6168 215.902C70.7888 215.014 70.3748 213.928 70.3748 212.644C70.3748 211.36 70.7888 210.28 71.6168 209.404C72.4568 208.528 73.5728 208.09 74.9648 208.09C76.3568 208.09 77.4728 208.528 78.3128 209.404C79.1528 210.28 79.5728 211.36 79.5728 212.644C79.5728 213.928 79.1528 215.014 78.3128 215.902ZM73.3448 214.462C73.7408 214.942 74.2808 215.182 74.9648 215.182C75.6488 215.182 76.1888 214.942 76.5848 214.462C76.9928 213.97 77.1968 213.364 77.1968 212.644C77.1968 211.936 76.9928 211.342 76.5848 210.862C76.1888 210.37 75.6488 210.124 74.9648 210.124C74.2808 210.124 73.7408 210.37 73.3448 210.862C72.9488 211.342 72.7508 211.936 72.7508 212.644C72.7508 213.364 72.9488 213.97 73.3448 214.462ZM88.6488 215.902C87.8088 216.778 86.6928 217.216 85.3008 217.216C83.9088 217.216 82.7928 216.778 81.9528 215.902C81.1248 215.014 80.7108 213.928 80.7108 212.644C80.7108 211.36 81.1248 210.28 81.9528 209.404C82.7928 208.528 83.9088 208.09 85.3008 208.09C86.6928 208.09 87.8088 208.528 88.6488 209.404C89.4888 210.28 89.9088 211.36 89.9088 212.644C89.9088 213.928 89.4888 215.014 88.6488 215.902ZM83.6808 214.462C84.0768 214.942 84.6168 215.182 85.3008 215.182C85.9848 215.182 86.5248 214.942 86.9208 214.462C87.3288 213.97 87.5328 213.364 87.5328 212.644C87.5328 211.936 87.3288 211.342 86.9208 210.862C86.5248 210.37 85.9848 210.124 85.3008 210.124C84.6168 210.124 84.0768 210.37 83.6808 210.862C83.2848 211.342 83.0868 211.936 83.0868 212.644C83.0868 213.364 83.2848 213.97 83.6808 214.462ZM94.7367 217.216C93.9807 217.216 93.2547 217.096 92.5587 216.856C91.8747 216.616 91.3047 216.286 90.8487 215.866L91.8387 214.264C92.1747 214.576 92.6307 214.852 93.2067 215.092C93.7827 215.332 94.3287 215.452 94.8447 215.452C95.3247 215.452 95.6847 215.368 95.9247 215.2C96.1767 215.032 96.3027 214.804 96.3027 214.516C96.3027 214.3 96.1707 214.126 95.9067 213.994C95.6547 213.85 95.3367 213.748 94.9527 213.688C94.5807 213.628 94.1667 213.538 93.7107 213.418C93.2667 213.298 92.8527 213.154 92.4687 212.986C92.0967 212.818 91.7787 212.554 91.5147 212.194C91.2627 211.822 91.1367 211.366 91.1367 210.826C91.1367 210.058 91.4547 209.41 92.0907 208.882C92.7267 208.354 93.5967 208.09 94.7007 208.09C96.0447 208.09 97.2147 208.486 98.2107 209.278L97.2927 210.844C97.0167 210.556 96.6447 210.316 96.1767 210.124C95.7207 209.932 95.2347 209.836 94.7187 209.836C94.3107 209.836 93.9807 209.92 93.7287 210.088C93.4767 210.244 93.3507 210.448 93.3507 210.7C93.3507 210.892 93.4767 211.054 93.7287 211.186C93.9807 211.306 94.2987 211.396 94.6827 211.456C95.0667 211.516 95.4807 211.612 95.9247 211.744C96.3687 211.864 96.7827 212.014 97.1667 212.194C97.5507 212.362 97.8687 212.638 98.1207 213.022C98.3727 213.406 98.4987 213.874 98.4987 214.426C98.4987 215.242 98.1627 215.914 97.4907 216.442C96.8307 216.958 95.9127 217.216 94.7367 217.216ZM104.269 217.216C102.925 217.216 101.815 216.796 100.939 215.956C100.063 215.116 99.6248 214.012 99.6248 212.644C99.6248 211.36 100.045 210.28 100.885 209.404C101.737 208.528 102.817 208.09 104.125 208.09C105.421 208.09 106.471 208.534 107.275 209.422C108.079 210.298 108.481 211.45 108.481 212.878V213.382H102.019C102.091 213.958 102.349 214.438 102.793 214.822C103.237 215.206 103.813 215.398 104.521 215.398C104.905 215.398 105.319 215.32 105.763 215.164C106.219 215.008 106.579 214.798 106.843 214.534L107.851 216.01C106.975 216.814 105.781 217.216 104.269 217.216ZM106.267 211.834C106.231 211.342 106.033 210.898 105.673 210.502C105.325 210.106 104.809 209.908 104.125 209.908C103.477 209.908 102.973 210.106 102.613 210.502C102.253 210.886 102.043 211.33 101.983 211.834H106.267ZM119.706 217.216C118.614 217.216 117.72 216.772 117.024 215.884V220.312H114.738V208.306H117.024V209.404C117.708 208.528 118.602 208.09 119.706 208.09C120.846 208.09 121.77 208.498 122.478 209.314C123.198 210.118 123.558 211.228 123.558 212.644C123.558 214.06 123.198 215.176 122.478 215.992C121.77 216.808 120.846 217.216 119.706 217.216ZM118.986 215.182C119.646 215.182 120.174 214.948 120.57 214.48C120.978 214.012 121.182 213.4 121.182 212.644C121.182 211.9 120.978 211.294 120.57 210.826C120.174 210.358 119.646 210.124 118.986 210.124C118.614 210.124 118.242 210.22 117.87 210.412C117.498 210.604 117.216 210.838 117.024 211.114V214.192C117.216 214.468 117.498 214.702 117.87 214.894C118.254 215.086 118.626 215.182 118.986 215.182ZM127.518 217H125.232V208.306H127.518V209.494C127.842 209.086 128.256 208.75 128.76 208.486C129.264 208.222 129.774 208.09 130.29 208.09V210.322C130.134 210.286 129.924 210.268 129.66 210.268C129.276 210.268 128.868 210.364 128.436 210.556C128.004 210.748 127.698 210.982 127.518 211.258V217ZM139.098 215.902C138.258 216.778 137.142 217.216 135.75 217.216C134.358 217.216 133.242 216.778 132.402 215.902C131.574 215.014 131.16 213.928 131.16 212.644C131.16 211.36 131.574 210.28 132.402 209.404C133.242 208.528 134.358 208.09 135.75 208.09C137.142 208.09 138.258 208.528 139.098 209.404C139.938 210.28 140.358 211.36 140.358 212.644C140.358 213.928 139.938 215.014 139.098 215.902ZM134.13 214.462C134.526 214.942 135.066 215.182 135.75 215.182C136.434 215.182 136.974 214.942 137.37 214.462C137.778 213.97 137.982 213.364 137.982 212.644C137.982 211.936 137.778 211.342 137.37 210.862C136.974 210.37 136.434 210.124 135.75 210.124C135.066 210.124 134.526 210.37 134.13 210.862C133.734 211.342 133.536 211.936 133.536 212.644C133.536 213.364 133.734 213.97 134.13 214.462ZM150.334 217H148.03V215.884C147.322 216.772 146.428 217.216 145.348 217.216C144.22 217.216 143.296 216.814 142.576 216.01C141.856 215.194 141.496 214.078 141.496 212.662C141.496 211.27 141.856 210.16 142.576 209.332C143.296 208.504 144.22 208.09 145.348 208.09C146.452 208.09 147.346 208.534 148.03 209.422V204.994H150.334V217ZM146.05 215.182C146.434 215.182 146.812 215.092 147.184 214.912C147.556 214.72 147.838 214.48 148.03 214.192V211.114C147.838 210.826 147.556 210.592 147.184 210.412C146.812 210.22 146.434 210.124 146.05 210.124C145.402 210.124 144.874 210.358 144.466 210.826C144.058 211.294 143.854 211.906 143.854 212.662C143.854 213.406 144.058 214.012 144.466 214.48C144.874 214.948 145.402 215.182 146.05 215.182ZM160.755 217H158.469V215.902C157.689 216.778 156.669 217.216 155.409 217.216C154.473 217.216 153.771 216.976 153.303 216.496C152.835 216.016 152.601 215.344 152.601 214.48V208.306H154.887V213.58C154.887 214.648 155.421 215.182 156.489 215.182C157.293 215.182 157.953 214.852 158.469 214.192V208.306H160.755V217ZM167.075 217.216C165.731 217.216 164.627 216.79 163.763 215.938C162.899 215.086 162.467 213.988 162.467 212.644C162.467 211.312 162.899 210.22 163.763 209.368C164.627 208.516 165.731 208.09 167.075 208.09C168.611 208.09 169.757 208.612 170.513 209.656L169.019 211.06C168.599 210.436 167.987 210.124 167.183 210.124C166.487 210.124 165.917 210.358 165.473 210.826C165.041 211.282 164.825 211.888 164.825 212.644C164.825 213.4 165.041 214.012 165.473 214.48C165.917 214.948 166.487 215.182 167.183 215.182C167.963 215.182 168.575 214.87 169.019 214.246L170.513 215.632C169.757 216.688 168.611 217.216 167.075 217.216ZM174.923 217.216C174.119 217.216 173.507 217.012 173.087 216.604C172.667 216.196 172.457 215.608 172.457 214.84V210.304H171.017V208.306H172.457V205.93H174.761V208.306H176.525V210.304H174.761V214.228C174.761 214.504 174.833 214.732 174.977 214.912C175.121 215.092 175.313 215.182 175.553 215.182C175.913 215.182 176.177 215.098 176.345 214.93L176.831 216.658C176.411 217.03 175.775 217.216 174.923 217.216Z" fill="black"/>
<g clip-path="url(#clip0_14_222)">
<path d="M121.484 95.9063C121.484 105.188 125.516 112.469 130.656 112.469C135.797 112.469 139.828 105.188 139.828 95.9063C139.828 86.625 135.797 79.3438 130.656 79.3438C125.516 79.3438 121.484 86.625 121.484 95.9063ZM137.641 95.9063C137.641 103.703 134.438 110.281 130.656 110.281C126.875 110.281 123.672 103.703 123.672 95.9063C123.672 88.1094 126.875 81.5313 130.656 81.5313C134.438 81.5313 137.641 88.125 137.641 95.9063Z" fill="black"/>
<path d="M148.906 60H112.406C111.797 60 111.312 60.4844 111.312 61.0938V66.5313C111.312 66.5469 111.312 66.5625 111.312 66.5938C111.312 66.6094 111.312 66.625 111.312 66.6406L114.531 99.0938H113.25V98.0313C113.25 95.4219 111.406 93.1719 108.844 92.6563C108.656 88.5313 107.266 84.5469 104.828 81.1875L102.125 77.4531C101.922 77.1719 101.594 77 101.25 77C100.906 76.9844 100.578 77.1406 100.375 77.4219L97.125 81.6719C95.0156 84.4063 91.7656 86.0156 88.3125 86.0156C84.5 86.0156 81.2656 88.8438 80.7656 92.6406C78.1875 93.125 76.3125 95.3906 76.3125 98.0156V99.0781H74.8438C74.2344 99.0781 73.75 99.5625 73.75 100.172V107.375H71.0938C70.4844 107.375 70 107.859 70 108.469V120.797C70.0156 127.609 72.2969 134.234 76.4844 139.609C76.6875 139.875 77.0156 140.031 77.3438 140.031H112.188C112.531 140.031 112.844 139.875 113.047 139.609C114.703 137.469 116.078 135.125 117.125 132.625V136.406C117.125 138.391 118.734 140 120.719 140H140.469C142.453 140 144.062 138.391 144.062 136.406V125.766C144.125 125.656 144.156 125.531 144.172 125.406L150 66.6406V66.5938C150 66.5781 150 66.5625 150 66.5313V61.0938C150 60.4844 149.516 60 148.906 60ZM78.4688 98.0313C78.4688 96.2188 79.9531 94.75 81.7656 94.75H91.0312C91.6406 94.75 92.125 94.2656 92.125 93.6563C92.125 93.0469 91.6406 92.5625 91.0312 92.5625H82.9688C83.4844 90.0469 85.7031 88.2344 88.2812 88.2188C92.4062 88.2031 96.3125 86.2813 98.8281 83.0156L101.188 79.9375L103.031 82.4844C105.172 85.4219 106.422 88.9219 106.609 92.5625H104.5C103.891 92.5625 103.406 93.0469 103.406 93.6563C103.406 94.2656 103.891 94.75 104.5 94.75H107.531C107.562 94.75 107.609 94.75 107.641 94.7344C107.672 94.7344 107.703 94.75 107.734 94.75H107.75C109.562 94.75 111.031 96.2188 111.031 98.0313V99.0938H78.4688V98.0313ZM75.9062 105.422H89.2188C89.8281 105.422 90.3125 104.938 90.3125 104.328C90.3125 103.719 89.8281 103.234 89.2188 103.234H75.9062V101.281H113.609V103.234H100.312C99.7031 103.234 99.2188 103.719 99.2188 104.328C99.2188 104.938 99.7031 105.422 100.312 105.422H113.625V107.391H75.9062V105.422ZM117.344 120.813C117.344 121.375 117.312 121.969 117.281 122.547C117.281 122.625 117.281 122.719 117.266 122.797C117.219 123.359 117.172 123.938 117.094 124.5C116.453 129.344 114.578 133.953 111.641 137.875H77.875C74.1875 132.938 72.2031 126.953 72.1875 120.813V109.578H117.344V120.813ZM141.891 136.406C141.891 137.188 141.266 137.813 140.484 137.813H120.719C119.938 137.813 119.312 137.188 119.312 136.406V130.688H141.875V136.406H141.891ZM141.891 128.5H119.312V126.391H141.875V128.5H141.891ZM142.094 124.203H119.344C119.344 124.125 119.359 124.063 119.359 123.984C119.406 123.563 119.438 123.141 119.469 122.734C119.469 122.609 119.484 122.484 119.5 122.359C119.531 121.844 119.547 121.328 119.547 120.813V108.484C119.547 107.875 119.062 107.391 118.453 107.391H117.562L113.625 67.625H147.703L142.094 124.203ZM147.812 65.4375H113.5V62.1875H147.812V65.4375Z" fill="black"/>
<path d="M100.469 92.5625H98.2812C97.6719 92.5625 97.1875 93.0468 97.1875 93.6562C97.1875 94.2656 97.6719 94.75 98.2812 94.75H100.469C101.078 94.75 101.562 94.2656 101.562 93.6562C101.562 93.0468 101.078 92.5625 100.469 92.5625Z" fill="black"/>
<path d="M94.5 114.547C85.2188 114.547 77.9375 118.578 77.9375 123.719C77.9375 128.859 85.2188 132.891 94.5 132.891C103.781 132.891 111.062 128.859 111.062 123.719C111.062 118.578 103.781 114.547 94.5 114.547ZM94.5 130.703C86.7031 130.703 80.125 127.5 80.125 123.719C80.125 119.938 86.7031 116.734 94.5 116.734C102.297 116.734 108.875 119.938 108.875 123.719C108.875 127.5 102.281 130.703 94.5 130.703Z" fill="black"/>
</g>
<defs>
<filter id="filter0_d_14_222" x="0" y="0" width="220" height="220" filterUnits="userSpaceOnUse" color-interpolation-filters="sRGB">
<feFlood flood-opacity="0" result="BackgroundImageFix"/>
<feColorMatrix in="SourceAlpha" type="matrix" values="0 0 0 0 0 0 0 0 0 0 0 0 0 0 0 0 0 0 127 0" result="hardAlpha"/>
<feOffset dy="10"/>
<feGaussianBlur stdDeviation="10"/>
<feColorMatrix type="matrix" values="0 0 0 0 0.366667 0 0 0 0 0.366667 0 0 0 0 0.366667 0 0 0 0.1 0"/>
<feBlend mode="normal" in2="BackgroundImageFix" result="effect1_dropShadow_14_222"/>
<feBlend mode="normal" in="SourceGraphic" in2="effect1_dropShadow_14_222" result="shape"/>
</filter>
<clipPath id="clip0_14_222">
<rect width="80" height="80.0469" fill="white" transform="translate(70 60)"/>
</clipPath>
</defs>
</svg>
