<svg width="280" height="31" viewBox="0 0 280 31" fill="none" xmlns="http://www.w3.org/2000/svg">
<rect x="16" y="16" width="0.999989" height="254" transform="rotate(-90 16 16)" fill="#DDDDDD"/>
<rect x="16" y="16" width="0.999994" height="127" transform="rotate(-90 16 16)" fill="#2196F3"/>
<circle cx="268.388" cy="15.1835" r="11.3878" transform="rotate(-90 268.388 15.1835)" fill="#DDDDDD"/>
<path d="M268.122 20.168C266.684 20.168 265.588 19.6687 264.832 18.67L265.546 17.9C266.19 18.7213 267.048 19.132 268.122 19.132C268.756 19.132 269.274 18.9407 269.676 18.558C270.077 18.1753 270.278 17.6993 270.278 17.13C270.278 16.5233 270.077 16.038 269.676 15.674C269.284 15.3007 268.77 15.114 268.136 15.114C267.296 15.114 266.577 15.408 265.98 15.996L265.126 15.702V10.662H270.838V11.698H266.288V14.946C266.848 14.386 267.576 14.106 268.472 14.106C269.293 14.106 269.993 14.3767 270.572 14.918C271.15 15.45 271.44 16.1733 271.44 17.088C271.44 18.0213 271.127 18.768 270.502 19.328C269.876 19.888 269.083 20.168 268.122 20.168Z" fill="white"/>
<circle cx="205.388" cy="15.1835" r="11.3878" transform="rotate(-90 205.388 15.1835)" fill="#DDDDDD"/>
<path d="M206.956 20H205.794V17.634H201.356V16.668L205.36 10.662H206.956V16.612H208.272V17.634H206.956V20ZM205.794 16.612V11.74L202.518 16.612H205.794Z" fill="white"/>
<circle cx="142.388" cy="15.1835" r="11.3878" transform="rotate(-90 142.388 15.1835)" fill="#2196F3"/>
<circle cx="142.184" cy="15.1835" r="14.6837" transform="rotate(-90 142.184 15.1835)" stroke="#2196F3"/>
<path d="M142.632 20.168C141.885 20.168 141.222 20.0233 140.644 19.734C140.065 19.4447 139.622 19.076 139.314 18.628L140 17.9C140.28 18.2733 140.648 18.572 141.106 18.796C141.563 19.02 142.062 19.132 142.604 19.132C143.285 19.132 143.817 18.978 144.2 18.67C144.592 18.3527 144.788 17.9233 144.788 17.382C144.788 16.822 144.578 16.4067 144.158 16.136C143.747 15.8653 143.182 15.73 142.464 15.73C141.913 15.73 141.591 15.7347 141.498 15.744V14.68C141.6 14.6893 141.922 14.694 142.464 14.694C143.098 14.694 143.616 14.568 144.018 14.316C144.428 14.0547 144.634 13.6673 144.634 13.154C144.634 12.6593 144.433 12.272 144.032 11.992C143.64 11.7027 143.145 11.558 142.548 11.558C141.605 11.558 140.784 11.936 140.084 12.692L139.44 11.964C140.233 11.0027 141.297 10.522 142.632 10.522C143.556 10.522 144.312 10.746 144.9 11.194C145.497 11.6327 145.796 12.2393 145.796 13.014C145.796 13.63 145.59 14.1247 145.18 14.498C144.769 14.862 144.302 15.0907 143.78 15.184C144.293 15.2307 144.778 15.4547 145.236 15.856C145.702 16.2573 145.936 16.7987 145.936 17.48C145.936 18.2733 145.637 18.922 145.04 19.426C144.442 19.9207 143.64 20.168 142.632 20.168Z" fill="white"/>
<circle cx="79.3878" cy="15.1835" r="11.3878" transform="rotate(-90 79.3878 15.1835)" fill="#2196F3"/>
<path d="M83.0762 19H76.6642V18.076C77.6349 17.3107 78.3862 16.704 78.9182 16.256C79.4595 15.7987 79.9775 15.318 80.4722 14.814C80.9762 14.3007 81.3309 13.848 81.5362 13.456C81.7415 13.0547 81.8442 12.658 81.8442 12.266C81.8442 11.706 81.6529 11.2813 81.2702 10.992C80.8875 10.7027 80.4302 10.558 79.8982 10.558C78.8249 10.558 77.9802 10.95 77.3642 11.734L76.6502 10.992C77.0049 10.5253 77.4669 10.166 78.0362 9.914C78.6149 9.65267 79.2355 9.522 79.8982 9.522C80.7475 9.522 81.4802 9.76 82.0962 10.236C82.7215 10.712 83.0342 11.3887 83.0342 12.266C83.0342 13.134 82.6609 14.002 81.9142 14.87C81.1675 15.7287 80.0289 16.76 78.4982 17.964H83.0762V19Z" fill="white"/>
<circle cx="12.1837" cy="15.1835" r="11.3878" transform="rotate(-90 12.1837 15.1835)" fill="#2196F3"/>
<path d="M12.6237 20H11.4617V12.202L9.96373 13.784L9.26373 13.07L11.6017 10.662H12.6237V20Z" fill="white"/>
</svg>
