<svg width="280" height="31" viewBox="0 0 280 31" fill="none" xmlns="http://www.w3.org/2000/svg">
<rect x="16" y="16" width="0.999989" height="254" transform="rotate(-90 16 16)" fill="#DDDDDD"/>
<rect x="16" y="16" width="0.999992" height="190" transform="rotate(-90 16 16)" fill="#2196F3"/>
<circle cx="268.388" cy="15.184" r="11.3878" transform="rotate(-90 268.388 15.184)" fill="#DDDDDD"/>
<path d="M268.122 20.1685C266.684 20.1685 265.588 19.6692 264.832 18.6705L265.546 17.9005C266.19 18.7218 267.048 19.1325 268.122 19.1325C268.756 19.1325 269.274 18.9412 269.676 18.5585C270.077 18.1758 270.278 17.6998 270.278 17.1305C270.278 16.5238 270.077 16.0385 269.676 15.6745C269.284 15.3012 268.77 15.1145 268.136 15.1145C267.296 15.1145 266.577 15.4085 265.98 15.9965L265.126 15.7025V10.6625H270.838V11.6985H266.288V14.9465C266.848 14.3865 267.576 14.1065 268.472 14.1065C269.293 14.1065 269.993 14.3772 270.572 14.9185C271.15 15.4505 271.44 16.1738 271.44 17.0885C271.44 18.0218 271.127 18.7685 270.502 19.3285C269.876 19.8885 269.083 20.1685 268.122 20.1685Z" fill="white"/>
<circle cx="205.388" cy="15.184" r="11.3878" transform="rotate(-90 205.388 15.184)" fill="#2196F3"/>
<circle cx="205.184" cy="15.1835" r="14.6837" transform="rotate(-90 205.184 15.1835)" stroke="#2196F3"/>
<path d="M206.956 20H205.794V17.634H201.356V16.668L205.36 10.662H206.956V16.612H208.272V17.634H206.956V20ZM205.794 16.612V11.74L202.518 16.612H205.794Z" fill="white"/>
<circle cx="142.388" cy="15.184" r="11.3878" transform="rotate(-90 142.388 15.184)" fill="#2196F3"/>
<path d="M142.632 20.1685C141.885 20.1685 141.222 20.0238 140.644 19.7345C140.065 19.4452 139.622 19.0765 139.314 18.6285L140 17.9005C140.28 18.2738 140.648 18.5725 141.106 18.7965C141.563 19.0205 142.062 19.1325 142.604 19.1325C143.285 19.1325 143.817 18.9785 144.2 18.6705C144.592 18.3532 144.788 17.9238 144.788 17.3825C144.788 16.8225 144.578 16.4072 144.158 16.1365C143.747 15.8658 143.182 15.7305 142.464 15.7305C141.913 15.7305 141.591 15.7352 141.498 15.7445V14.6805C141.6 14.6898 141.922 14.6945 142.464 14.6945C143.098 14.6945 143.616 14.5685 144.018 14.3165C144.428 14.0552 144.634 13.6678 144.634 13.1545C144.634 12.6598 144.433 12.2725 144.032 11.9925C143.64 11.7032 143.145 11.5585 142.548 11.5585C141.605 11.5585 140.784 11.9365 140.084 12.6925L139.44 11.9645C140.233 11.0032 141.297 10.5225 142.632 10.5225C143.556 10.5225 144.312 10.7465 144.9 11.1945C145.497 11.6332 145.796 12.2398 145.796 13.0145C145.796 13.6305 145.59 14.1252 145.18 14.4985C144.769 14.8625 144.302 15.0912 143.78 15.1845C144.293 15.2312 144.778 15.4552 145.236 15.8565C145.702 16.2578 145.936 16.7992 145.936 17.4805C145.936 18.2738 145.637 18.9225 145.04 19.4265C144.442 19.9212 143.64 20.1685 142.632 20.1685Z" fill="white"/>
<circle cx="79.3878" cy="15.184" r="11.3878" transform="rotate(-90 79.3878 15.184)" fill="#2196F3"/>
<path d="M83.0762 19.0005H76.6642V18.0765C77.6349 17.3112 78.3862 16.7045 78.9182 16.2565C79.4595 15.7992 79.9775 15.3185 80.4722 14.8145C80.9762 14.3012 81.3309 13.8485 81.5362 13.4565C81.7415 13.0552 81.8442 12.6585 81.8442 12.2665C81.8442 11.7065 81.6529 11.2818 81.2702 10.9925C80.8875 10.7032 80.4302 10.5585 79.8982 10.5585C78.8249 10.5585 77.9802 10.9505 77.3642 11.7345L76.6502 10.9925C77.0049 10.5258 77.4669 10.1665 78.0362 9.91449C78.6149 9.65315 79.2355 9.52249 79.8982 9.52249C80.7475 9.52249 81.4802 9.76049 82.0962 10.2365C82.7215 10.7125 83.0342 11.3892 83.0342 12.2665C83.0342 13.1345 82.6609 14.0025 81.9142 14.8705C81.1675 15.7292 80.0289 16.7605 78.4982 17.9645H83.0762V19.0005Z" fill="white"/>
<circle cx="12.1837" cy="15.184" r="11.3878" transform="rotate(-90 12.1837 15.184)" fill="#2196F3"/>
<path d="M12.6237 20.0005H11.4617V12.2025L9.96373 13.7845L9.26373 13.0705L11.6017 10.6625H12.6237V20.0005Z" fill="white"/>
</svg>
