<svg width="280" height="31" viewBox="0 0 280 31" fill="none" xmlns="http://www.w3.org/2000/svg">
<rect x="16" y="16" width="0.999989" height="254" transform="rotate(-90 16 16)" fill="#DDDDDD"/>
<rect x="16" y="16" width="0.999997" height="63" transform="rotate(-90 16 16)" fill="#2196F3"/>
<circle cx="268.388" cy="15.1835" r="11.3878" transform="rotate(-90 268.388 15.1835)" fill="#DDDDDD"/>
<path d="M268.122 20.1678C266.684 20.1678 265.588 19.6684 264.832 18.6698L265.546 17.8998C266.19 18.7211 267.048 19.1318 268.122 19.1318C268.756 19.1318 269.274 18.9404 269.676 18.5578C270.077 18.1751 270.278 17.6991 270.278 17.1298C270.278 16.5231 270.077 16.0378 269.676 15.6738C269.284 15.3004 268.77 15.1138 268.136 15.1138C267.296 15.1138 266.577 15.4078 265.98 15.9958L265.126 15.7018V10.6618H270.838V11.6978H266.288V14.9458C266.848 14.3858 267.576 14.1058 268.472 14.1058C269.293 14.1058 269.993 14.3764 270.572 14.9178C271.15 15.4498 271.44 16.1731 271.44 17.0878C271.44 18.0211 271.127 18.7678 270.502 19.3278C269.876 19.8878 269.083 20.1678 268.122 20.1678Z" fill="white"/>
<circle cx="205.388" cy="15.1835" r="11.3878" transform="rotate(-90 205.388 15.1835)" fill="#DDDDDD"/>
<path d="M206.956 19.9998H205.794V17.6338H201.356V16.6678L205.36 10.6618H206.956V16.6118H208.272V17.6338H206.956V19.9998ZM205.794 16.6118V11.7398L202.518 16.6118H205.794Z" fill="white"/>
<circle cx="142.388" cy="15.1835" r="11.3878" transform="rotate(-90 142.388 15.1835)" fill="#DDDDDD"/>
<path d="M142.632 20.1678C141.885 20.1678 141.222 20.0231 140.644 19.7338C140.065 19.4444 139.622 19.0758 139.314 18.6278L140 17.8998C140.28 18.2731 140.648 18.5718 141.106 18.7958C141.563 19.0198 142.062 19.1318 142.604 19.1318C143.285 19.1318 143.817 18.9778 144.2 18.6698C144.592 18.3524 144.788 17.9231 144.788 17.3818C144.788 16.8218 144.578 16.4064 144.158 16.1358C143.747 15.8651 143.182 15.7298 142.464 15.7298C141.913 15.7298 141.591 15.7344 141.498 15.7438V14.6798C141.6 14.6891 141.922 14.6938 142.464 14.6938C143.098 14.6938 143.616 14.5678 144.018 14.3158C144.428 14.0544 144.634 13.6671 144.634 13.1538C144.634 12.6591 144.433 12.2718 144.032 11.9918C143.64 11.7024 143.145 11.5578 142.548 11.5578C141.605 11.5578 140.784 11.9358 140.084 12.6918L139.44 11.9638C140.233 11.0024 141.297 10.5218 142.632 10.5218C143.556 10.5218 144.312 10.7458 144.9 11.1938C145.497 11.6324 145.796 12.2391 145.796 13.0138C145.796 13.6298 145.59 14.1244 145.18 14.4978C144.769 14.8618 144.302 15.0904 143.78 15.1838C144.293 15.2304 144.778 15.4544 145.236 15.8558C145.702 16.2571 145.936 16.7984 145.936 17.4798C145.936 18.2731 145.637 18.9218 145.04 19.4258C144.442 19.9204 143.64 20.1678 142.632 20.1678Z" fill="white"/>
<circle cx="79.3882" cy="15.1835" r="11.3878" transform="rotate(-90 79.3882 15.1835)" fill="#2196F3"/>
<circle cx="79.1837" cy="15.1835" r="14.6837" transform="rotate(-90 79.1837 15.1835)" stroke="#2196F3"/>
<path d="M83.0767 19H76.6647V18.076C77.6354 17.3107 78.3867 16.704 78.9187 16.256C79.46 15.7987 79.978 15.318 80.4727 14.814C80.9767 14.3007 81.3314 13.848 81.5367 13.456C81.742 13.0547 81.8447 12.658 81.8447 12.266C81.8447 11.706 81.6534 11.2813 81.2707 10.992C80.888 10.7027 80.4307 10.558 79.8987 10.558C78.8254 10.558 77.9807 10.95 77.3647 11.734L76.6507 10.992C77.0054 10.5253 77.4674 10.166 78.0367 9.914C78.6154 9.65267 79.236 9.522 79.8987 9.522C80.748 9.522 81.4807 9.76 82.0967 10.236C82.722 10.712 83.0347 11.3887 83.0347 12.266C83.0347 13.134 82.6614 14.002 81.9147 14.87C81.168 15.7287 80.0294 16.76 78.4987 17.964H83.0767V19Z" fill="white"/>
<circle cx="12.1837" cy="15.1835" r="11.3878" transform="rotate(-90 12.1837 15.1835)" fill="#2196F3"/>
<path d="M12.6237 19.9998H11.4617V12.2018L9.96373 13.7838L9.26373 13.0698L11.6017 10.6618H12.6237V19.9998Z" fill="white"/>
</svg>
