<svg width="283" height="31" viewBox="0 0 283 31" fill="none" xmlns="http://www.w3.org/2000/svg">
<rect x="19" y="16" width="0.999989" height="254" transform="rotate(-90 19 16)" fill="#DDDDDD"/>
<circle cx="271.388" cy="15.1837" r="11.3878" transform="rotate(-90 271.388 15.1837)" fill="#DDDDDD"/>
<path d="M271.122 20.168C269.684 20.168 268.588 19.6687 267.832 18.67L268.546 17.9C269.19 18.7213 270.048 19.132 271.122 19.132C271.756 19.132 272.274 18.9407 272.676 18.558C273.077 18.1753 273.278 17.6993 273.278 17.13C273.278 16.5233 273.077 16.038 272.676 15.674C272.284 15.3007 271.77 15.114 271.136 15.114C270.296 15.114 269.577 15.408 268.98 15.996L268.126 15.702V10.662H273.838V11.698H269.288V14.946C269.848 14.386 270.576 14.106 271.472 14.106C272.293 14.106 272.993 14.3767 273.572 14.918C274.15 15.45 274.44 16.1733 274.44 17.088C274.44 18.0213 274.127 18.768 273.502 19.328C272.876 19.888 272.083 20.168 271.122 20.168Z" fill="white"/>
<circle cx="208.388" cy="15.1837" r="11.3878" transform="rotate(-90 208.388 15.1837)" fill="#DDDDDD"/>
<path d="M209.956 20H208.794V17.634H204.356V16.668L208.36 10.662H209.956V16.612H211.272V17.634H209.956V20ZM208.794 16.612V11.74L205.518 16.612H208.794Z" fill="white"/>
<circle cx="145.388" cy="15.1837" r="11.3878" transform="rotate(-90 145.388 15.1837)" fill="#DDDDDD"/>
<path d="M145.632 20.168C144.885 20.168 144.222 20.0233 143.644 19.734C143.065 19.4447 142.622 19.076 142.314 18.628L143 17.9C143.28 18.2733 143.648 18.572 144.106 18.796C144.563 19.02 145.062 19.132 145.604 19.132C146.285 19.132 146.817 18.978 147.2 18.67C147.592 18.3527 147.788 17.9233 147.788 17.382C147.788 16.822 147.578 16.4067 147.158 16.136C146.747 15.8653 146.182 15.73 145.464 15.73C144.913 15.73 144.591 15.7347 144.498 15.744V14.68C144.6 14.6893 144.922 14.694 145.464 14.694C146.098 14.694 146.616 14.568 147.018 14.316C147.428 14.0547 147.634 13.6673 147.634 13.154C147.634 12.6593 147.433 12.272 147.032 11.992C146.64 11.7027 146.145 11.558 145.548 11.558C144.605 11.558 143.784 11.936 143.084 12.692L142.44 11.964C143.233 11.0027 144.297 10.522 145.632 10.522C146.556 10.522 147.312 10.746 147.9 11.194C148.497 11.6327 148.796 12.2393 148.796 13.014C148.796 13.63 148.59 14.1247 148.18 14.498C147.769 14.862 147.302 15.0907 146.78 15.184C147.293 15.2307 147.778 15.4547 148.236 15.856C148.702 16.2573 148.936 16.7987 148.936 17.48C148.936 18.2733 148.637 18.922 148.04 19.426C147.442 19.9207 146.64 20.168 145.632 20.168Z" fill="white"/>
<circle cx="82.3878" cy="15.1837" r="11.3878" transform="rotate(-90 82.3878 15.1837)" fill="#DDDDDD"/>
<path d="M86.0762 19H79.6642V18.076C80.6349 17.3107 81.3862 16.704 81.9182 16.256C82.4595 15.7987 82.9775 15.318 83.4722 14.814C83.9762 14.3007 84.3309 13.848 84.5362 13.456C84.7415 13.0547 84.8442 12.658 84.8442 12.266C84.8442 11.706 84.6529 11.2813 84.2702 10.992C83.8875 10.7027 83.4302 10.558 82.8982 10.558C81.8249 10.558 80.9802 10.95 80.3642 11.734L79.6502 10.992C80.0049 10.5253 80.4669 10.166 81.0362 9.914C81.6149 9.65267 82.2355 9.522 82.8982 9.522C83.7475 9.522 84.4802 9.76 85.0962 10.236C85.7215 10.712 86.0342 11.3887 86.0342 12.266C86.0342 13.134 85.6609 14.002 84.9142 14.87C84.1675 15.7287 83.0289 16.76 81.4982 17.964H86.0762V19Z" fill="white"/>
<circle cx="15.1837" cy="15.1837" r="11.3878" transform="rotate(-90 15.1837 15.1837)" fill="#2196F3"/>
<circle cx="15.1837" cy="15.1836" r="14.6837" transform="rotate(-90 15.1837 15.1836)" stroke="#2196F3"/>
<path d="M15.6237 20H14.4617V12.202L12.9637 13.784L12.2637 13.07L14.6017 10.662H15.6237V20Z" fill="white"/>
</svg>
